<?xml version="1.0" standalone="no"?>
<!DOCTYPE svg PUBLIC "-//W3C//DTD SVG 1.1//EN" "http://www.w3.org/Graphics/SVG/1.1/DTD/svg11.dtd" >
<svg xmlns="http://www.w3.org/2000/svg" xmlns:xlink="http://www.w3.org/1999/xlink" version="1.1">
<metadata></metadata>
<defs>
<font id="goudybold" horiz-adv-x="1138" >
<font-face units-per-em="2048" ascent="1638" descent="-410" />
<missing-glyph horiz-adv-x="569" />
<glyph horiz-adv-x="0" />
<glyph unicode="&#xd;" horiz-adv-x="681" />
<glyph unicode=" "  horiz-adv-x="569" />
<glyph unicode="&#x09;" horiz-adv-x="569" />
<glyph unicode="&#xa0;" horiz-adv-x="569" />
<glyph unicode="!" horiz-adv-x="681" d="M162 184q0 39 72.5 112t111.5 73t111.5 -73t72.5 -112t-72.5 -111.5t-111.5 -72.5t-111.5 72.5t-72.5 111.5zM218 1380.5q3 34.5 34 40.5q92 20 203 21q45 0 52 -27t-3 -47l-121 -811q-6 -51 -35 -51q-25 0 -31 65l-94 752q-8 23 -5 57.5z" />
<glyph unicode="&#x22;" horiz-adv-x="1024" d="M147 1260q-10 55 33 109t104.5 54t104.5 -54t33 -109l-90 -490h-94zM602 1260q-10 55 33 109t104.5 54t104.5 -54t33 -109l-91 -490h-94z" />
<glyph unicode="#" d="M66 442v156h235l33 219h-211v156h233l62 413h153l-61 -413h219l59 413h154l-59 -413h190v-156h-213l-33 -219h193v-156h-215l-66 -442h-153l65 442h-221l-65 -442h-154l65 442h-210zM455 598h219l33 219h-220z" />
<glyph unicode="$" d="M96 174q0 66 20.5 167t49.5 101q8 0 14 -1t10.5 -4t6.5 -5t3 -9t1 -9t1 -12.5t1 -12.5q10 -143 96 -237.5t223 -94.5v578q-199 66 -262 108q-133 88 -133 267q0 164 121 270t274 106v117q0 27 1 38t11.5 21.5t30.5 10.5q29 0 35 -16.5t6 -53.5v-117q205 -16 324 -108 q49 -39 35 -98l-45 -164q-4 -18 -31 -19q-10 0 -16.5 4.5t-9.5 13.5t-4 16t-2 20.5t-1 19.5q-14 121 -92 184.5t-158 63.5v-457q170 -53 234 -92q201 -117 200 -354q0 -186 -122.5 -306t-311.5 -133v-194q0 -27 -1 -38t-11 -21.5t-29 -10.5q-20 0 -30.5 10.5t-11.5 21.5 t-1 38v194q-117 6 -256 56q-35 14 -51 22t-51 28.5t-51.5 43.5t-16.5 47zM293 1106q0 -92 60 -138t169 -81v438q-100 0 -164.5 -59.5t-64.5 -159.5zM606 57q115 0 189.5 78t74.5 193q0 66 -16 110.5t-52 74.5t-71 46t-96 39q-19 6 -29 10v-551z" />
<glyph unicode="%" horiz-adv-x="1820" d="M92 1034q0 152 99.5 252t246.5 100q174 0 270.5 -106t96.5 -281q0 -152 -99.5 -252t-246.5 -100q-174 0 -270.5 106.5t-96.5 280.5zM260 1061q0 -57 10.5 -115.5t34 -115t69.5 -92.5t107 -36q53 0 88 25t48.5 73t16.5 83t3 90q0 57 -10.5 115.5t-34 115t-69.5 92 t-107 35.5q-53 0 -88 -24.5t-48.5 -72.5t-16.5 -83t-3 -90zM467 0l764 1386h96l-764 -1386h-96zM1008 387q0 152 99.5 252t246.5 100q174 0 270 -106.5t96 -280.5q0 -152 -99 -252t-247 -100q-174 0 -270 106.5t-96 280.5zM1176 414q0 -57 10 -115.5t33.5 -115t69.5 -92.5 t108 -36q53 0 88 24.5t48 73t16 83t3 90.5q0 57 -10 115.5t-33.5 114.5t-70 92t-107.5 36q-53 0 -88 -24.5t-48 -72.5t-16 -83t-3 -90z" />
<glyph unicode="&#x26;" horiz-adv-x="1820" d="M100 475q0 100 33 183t79 131.5t92 81t79 50t33 21.5q0 8 -21.5 67.5t-21.5 131.5q0 141 100 230t244 89q80 0 185.5 -38t107.5 -38q14 0 32.5 15.5t34.5 15.5q14 0 18.5 -8t4.5 -33q0 -72 28 -315q4 -37 -30 -37q-25 0 -39 49q-41 135 -128 223t-214 88 q-70 0 -107 -39.5t-37 -111.5q0 -102 106.5 -258t240 -287t249 -227.5t136.5 -96.5q6 0 24.5 25t36.5 77t18 107q0 88 -36.5 132.5t-79.5 49.5t-80 15t-37 35q0 29 39 28q6 0 70.5 -4t140.5 -4q59 0 110.5 4t59.5 4q33 0 33 -26q0 -16 -11.5 -24.5t-25 -10.5t-26.5 -15.5 t-17 -37.5q-16 -131 -48 -227.5t-55 -135.5l-24 -39q0 -55 111.5 -122.5t162.5 -67.5q45 0 70.5 7t34.5 7q29 0 28 -24q0 -33 -76.5 -85.5t-177.5 -52.5q-145 0 -333 160q-88 -80 -228.5 -120t-275.5 -40q-133 0 -240.5 35t-175.5 88.5t-114 122t-64.5 132t-18.5 120.5z M287 659q0 -113 83 -243.5t226 -224t293 -93.5q68 0 159 24.5t91 51.5q0 14 -78 77.5t-180.5 142.5t-215 196t-169.5 221q-35 61 -56 61q-43 0 -98 -56t-55 -157z" />
<glyph unicode="'" horiz-adv-x="569" d="M147 1260q-10 55 33 109t104.5 54t104.5 -54t33 -109l-90 -490h-94z" />
<glyph unicode="(" horiz-adv-x="796" d="M168 626.5q0 237.5 108.5 466t282.5 410.5q18 23 45 23q23 0 23 -27q0 -16 -38 -92t-83 -174t-83 -264t-38 -342t38 -342t83 -264.5t83 -173t38 -89.5q0 -31 -27 -30q-23 0 -41 22q-174 182 -282.5 410.5t-108.5 466z" />
<glyph unicode=")" horiz-adv-x="796" d="M170 -246q0 16 38 92t83 174.5t83 264.5t38 342t-38 342t-83 264t-83 173t-38 89q0 31 27 31q23 0 41 -23q174 -182 282.5 -410.5t108.5 -466t-108.5 -466t-282.5 -410.5q-18 -23 -45 -22q-23 0 -23 26z" />
<glyph unicode="*" horiz-adv-x="1024" d="M115 768q0 39 22.5 68.5t61.5 37.5h24.5h31.5t35.5 3.5t48 8.5t55.5 16t69 26v28q-35 14 -69 25.5t-55.5 17t-48 8.5t-35.5 3h-31.5h-24.5q-39 0 -61.5 32.5t-22.5 73.5q0 35 34.5 65.5t71.5 30.5q41 0 69.5 -26.5t46 -61t55.5 -76.5t89 -65l17 10q0 80 -44 168t-44 133 q0 49 33.5 70.5t68.5 21.5t68.5 -21.5t33.5 -70.5q0 -45 -44 -133t-44 -168l17 -10q51 23 89 65t55.5 76.5t46 61t69.5 26.5q37 0 71.5 -30.5t34.5 -65.5q0 -41 -22.5 -73.5t-61.5 -32.5h-24.5h-31.5t-35.5 -3t-48 -8.5t-55.5 -16.5t-69 -26v-28q35 -14 69 -25.5t55.5 -16.5 t48 -8.5t35.5 -3.5h31.5h24.5q39 -8 61.5 -37.5t22.5 -68.5q0 -35 -34.5 -65.5t-71.5 -30.5q-41 0 -69.5 26.5t-46 61.5t-55.5 77t-89 64l-17 -10q0 -80 44 -168t44 -133q0 -49 -33.5 -70.5t-68.5 -21.5t-68.5 21.5t-33.5 70.5q0 45 44 133t44 168l-17 10q-51 -23 -89 -64.5 t-55.5 -76.5t-46 -61.5t-69.5 -26.5q-37 0 -71.5 30.5t-34.5 65.5z" />
<glyph unicode="+" horiz-adv-x="1241" d="M104 434v176h428v424h177v-424h428v-176h-428v-434h-177v434h-428z" />
<glyph unicode="," horiz-adv-x="569" d="M90 -250q0 12 23.5 34.5t53.5 46.5t53.5 66t23.5 91q0 45 -22.5 81.5t-50.5 55t-50.5 38t-22.5 34.5q0 18 82 90l24.5 24.5t31 29.5t27 18.5t28.5 9.5q57 0 106 -73t49 -163q0 -141 -121.5 -274t-209.5 -133q-25 0 -25 24z" />
<glyph unicode="-" horiz-adv-x="681" d="M86 285v135q0 24 74 51l360 127q41 14 53 14q20 0 21 -26v-135q0 -25 -74 -52l-360 -127q-41 -14 -54 -14q-20 0 -20 27z" />
<glyph unicode="." horiz-adv-x="569" d="M90 184q0 39 73 112t111.5 73t111.5 -73t73 -112t-73 -111.5t-111.5 -72.5t-111.5 72.5t-73 111.5z" />
<glyph unicode="/" horiz-adv-x="569" d="M-74 -266l545 1792h174l-545 -1792h-174z" />
<glyph unicode="0" d="M66 608q0 205 52 360.5t119.5 231.5t151.5 122t130 55t73 9q80 0 159.5 -32.5t154.5 -102t121 -197.5t46 -298q0 -205 -52 -360.5t-119.5 -231.5t-151.5 -122t-130.5 -55.5t-72.5 -9.5q-80 0 -160 33t-154.5 102.5t-120.5 197.5t-46 298zM254 844q0 -311 112.5 -521 t278.5 -210q246 0 246 436q0 311 -112.5 521t-278.5 210q-246 0 -246 -436z" />
<glyph unicode="1" d="M242 1178q0 12 5 20t15 13.5t16.5 8.5t21.5 6t17 3q86 20 153 44.5t102.5 44t58 35t33 24.5t14.5 9q20 0 20 -20q0 -12 -8 -86t-8 -119v-944q0 -63 24.5 -100t59.5 -46.5t69.5 -11.5t59.5 -8t25 -24q0 -6 -1 -11.5t-4.5 -9.5t-7.5 -7t-10 -4t-11 -2t-14.5 -1h-16.5h-19.5 h-20.5q-31 0 -122 4t-130 4q-43 0 -157.5 -4t-135.5 -4q-16 0 -16 31q0 25 32.5 32.5t72.5 10t73 34t33 99.5v845q0 43 -6 70t-18.5 36t-19.5 11t-24 2q-29 0 -77 -10t-50 -10q-14 0 -21 13t-7 22z" />
<glyph unicode="2" d="M76 12q0 6 1 11.5t6 13.5t10 17t18.5 25.5l27 33t37 45t48 58.5t61.5 76t75 95q315 395 316 608q0 109 -65.5 170.5t-176.5 61.5q-74 0 -137.5 -34t-100 -66.5t-49.5 -32.5q-33 0 -32 26q0 20 31.5 62.5t85 88.5t141.5 80.5t182 34.5q143 0 240.5 -80.5t97.5 -222.5 q0 -102 -85 -251.5t-186.5 -269.5t-186.5 -220t-85 -115q0 -24 68 -24h297q70 0 122 24.5t74.5 53t44 53t35.5 24.5q12 0 20.5 -9t8.5 -19q0 -49 -94 -213q-2 -2 -16.5 -33t-25 -45t-29.5 -30.5t-42 -16.5q-6 0 -153.5 4t-274.5 4q-76 0 -161 -4t-97 -4q-51 0 -51 20z" />
<glyph unicode="3" d="M51 129q0 35 33 35q14 0 49 -26.5t94.5 -54.5t137.5 -28q156 0 256 106.5t100 264.5q-1 252 -234 252q-35 0 -69 -6l-37 -4q-25 0 -25 26q0 12 30 31.5t71 47.5t83 63.5t71.5 91t29.5 119.5q0 96 -59.5 156.5t-157.5 60.5q-59 0 -122.5 -35t-104.5 -70t-45 -35 q-14 0 -21.5 9.5t-7.5 17.5q0 55 127 145t268 90q129 0 224.5 -65.5t95.5 -187.5q0 -57 -29 -111.5t-64.5 -86.5t-64.5 -59.5t-29 -37.5q0 -2 32 -7.5t77 -21.5t90 -48t76.5 -99.5t31.5 -161.5q0 -221 -159.5 -372t-390.5 -151q-104 0 -190.5 30t-126.5 63.5t-40 58.5z" />
<glyph unicode="4" d="M31 442q0 25 16 61t47 78t56.5 73.5t60.5 72.5t41 49l405 500q109 139 152 139q29 0 29 -90v-686q0 -49 26 -49h76q37 0 55.5 42t34.5 42q25 0 25 -27q0 -256 -101 -256h-88q-18 0 -23 -8t-5 -37v-422q0 -20 -89.5 -37.5t-123.5 -17.5q-23 0 -23 14q0 16 9.5 45t9.5 68 v334q0 51 -5.5 56t-48.5 5h-434h-14h-14.5h-13.5t-14 1t-12.5 3t-11.5 4t-9 6.5t-7 9.5t-4 12t-2 15zM221 592q0 -10 64 -10h280q39 0 47.5 10t8.5 49v408q0 49 -9 49q-4 0 -11 -8.5t-16.5 -21.5t-13.5 -17l-317 -406q-33 -39 -33 -53z" />
<glyph unicode="5" d="M55 86q0 23 31 23q6 0 88 -25t158 -25q168 0 285.5 98.5t117.5 262.5q0 264 -329 264q-47 0 -103.5 -5t-83.5 -5q-25 0 -27.5 22.5t7.5 71.5l96 596q2 23 47 22h453q39 0 68.5 38t45.5 38q25 0 25 -20l-12 -41l-52 -164q-12 -45 -26.5 -51t-87.5 -6h-310q-41 0 -55 -1 t-30.5 -9.5t-21.5 -26t-11 -51.5l-27 -164q-12 -66 14 -66q6 0 29 4t65 8.5t97 4.5q203 0 322.5 -92.5t119.5 -286.5q0 -61 -17.5 -128t-60.5 -138.5t-105.5 -128t-159.5 -92.5t-216 -36q-78 0 -206 30t-128 79z" />
<glyph unicode="6" d="M70 545q0 176 66.5 326.5t166.5 248t220 167t225.5 99t183.5 29.5q45 0 45 -26q0 -20 -24.5 -29.5t-89 -28t-124.5 -47.5q-154 -74 -259 -226.5t-105 -246.5q0 -31 14 -31q8 0 19.5 6.5t31 20.5t35.5 22q90 49 225 50q170 0 268.5 -113t98.5 -285q0 -227 -141.5 -365.5 t-368.5 -138.5q-233 0 -360 163t-127 405zM307 479q0 -96 30 -190t102.5 -167t172.5 -73q236 1 236 318q0 94 -26.5 178t-93 147.5t-163.5 63.5q-119 0 -188.5 -80t-69.5 -197z" />
<glyph unicode="7" d="M141 1061q0 106 37 215.5t86 109.5h641q2 0 16.5 2.5t21.5 0t17.5 -6.5t15.5 -19t5 -38q0 -80 -39 -197.5t-192 -468.5q-119 -272 -119 -436q0 -66 18.5 -142.5t18.5 -94.5q0 -27 -86 -45.5t-121 -18.5q-33 0 -53.5 17.5t-27.5 52.5t-8 55.5t-1 56.5q0 121 50 249 t111.5 216t139.5 200t110 177q2 6 23.5 47t29 56.5t16.5 47t9 56.5q0 29 -106 29h-375q-78 0 -116 -46t-53 -93.5t-36 -47.5q-33 0 -33 66z" />
<glyph unicode="8" d="M78 358q0 125 77.5 223.5t159.5 123.5q-80 41 -125 120t-45 179q0 176 134.5 279t316.5 103q156 0 280.5 -82.5t124.5 -230.5q0 -106 -69.5 -178t-183.5 -98v-4q160 -70 235.5 -154t75.5 -248q0 -203 -147.5 -308.5t-360.5 -105.5q-135 0 -233.5 36t-147.5 96.5 t-70.5 122t-21.5 126.5zM248 428q0 -160 87 -271.5t245 -111.5q127 0 218 61.5t91 180.5q0 184 -213 264l-281 106q-74 -16 -110.5 -81.5t-36.5 -147.5zM301 1100q0 -76 77 -139.5t154.5 -91t116.5 -27.5q92 0 146.5 59.5t54.5 151.5q0 129 -85 196.5t-218 67.5 q-100 0 -173 -60.5t-73 -156.5z" />
<glyph unicode="9" d="M70 883q0 227 141 365t369 138q233 0 360 -162.5t127 -404.5q0 -176 -66.5 -323.5t-167 -240.5t-221 -158.5t-224 -92.5t-183.5 -27q-45 0 -45 27q0 20 23.5 30.5t90 29t123.5 40.5q154 63 259.5 209t105.5 240q0 31 -14 31q-8 0 -19.5 -6.5t-31 -20.5t-35.5 -22 q-90 -49 -226 -50q-170 0 -268 113t-98 285zM289 999q0 -94 26.5 -178t93 -147.5t162.5 -63.5q119 0 188.5 80t69.5 197q0 96 -29.5 190t-102 167t-173.5 73q-235 -1 -235 -318z" />
<glyph unicode=":" horiz-adv-x="681" d="M156 184q0 39 72.5 112t111.5 73t111.5 -73t72.5 -112t-72.5 -111.5t-111.5 -72.5t-111.5 72.5t-72.5 111.5zM156 729q0 39 72.5 111.5t111.5 72.5t111.5 -72.5t72.5 -111.5t-72.5 -111.5t-111.5 -72.5t-111.5 72.5t-72.5 111.5z" />
<glyph unicode=";" horiz-adv-x="681" d="M154 -250q0 14 37.5 45t76.5 80t39 113q0 57 -37 99t-72.5 67.5t-35.5 42.5q0 18 82 90l24.5 24.5t30.5 29.5t26.5 18.5t28.5 9.5q57 0 106.5 -73t49.5 -163q0 -141 -122 -274t-210 -133q-25 0 -24 24zM158 729.5q0 22.5 80.5 103t103.5 80.5t103.5 -80.5t80.5 -103 t-80.5 -103.5t-103.5 -81t-103.5 81t-80.5 103.5z" />
<glyph unicode="&#x3c;" horiz-adv-x="1241" d="M100 440v152l1043 471v-172l-815 -375l815 -375v-172z" />
<glyph unicode="=" horiz-adv-x="1241" d="M104 233v177h1033v-177h-1033zM104 635v176h1033v-176h-1033z" />
<glyph unicode="&#x3e;" horiz-adv-x="1241" d="M98 -31v172l815 375l-815 375v172l1043 -471v-152z" />
<glyph unicode="?" horiz-adv-x="796" d="M86 1253q0 51 82 120t197 69q123 0 208.5 -59.5t85.5 -178.5q0 -63 -50 -144t-109.5 -146.5t-109.5 -153.5t-50 -166q0 -10 5 -37t5 -39q0 -20 -20 -20q-31 0 -52.5 46t-21.5 107q0 63 79 268t79 267q0 59 -35 97t-94 38q-57 0 -111.5 -49t-64.5 -49q-23 0 -23 30z M150 184q0 39 72.5 112t111.5 73t111.5 -73t72.5 -112t-72.5 -111.5t-111.5 -72.5t-111.5 72.5t-72.5 111.5z" />
<glyph unicode="@" horiz-adv-x="1529" d="M55 702q0 319 214 538.5t534 219.5q289 0 479.5 -177t190.5 -415q0 -51 -12.5 -115.5t-46.5 -147.5t-84 -149.5t-137 -112.5t-194 -46q-70 0 -108.5 50t-42.5 124q-63 -84 -115.5 -123t-134.5 -39q-127 0 -197.5 83t-70.5 216q0 176 132 321.5t306 145.5q145 0 176 -145 h4l29 129h203l-160 -588q-10 -41 2 -72.5t55 -31.5q90 0 182.5 181t92.5 316q0 88 -35 171t-100.5 151.5t-170 110.5t-231.5 42q-274 0 -456.5 -175t-182.5 -447q0 -281 190.5 -450t473.5 -169q145 0 272 75t213 200h135q-90 -178 -265 -287t-378 -109q-319 0 -540.5 205 t-221.5 520zM532 539q0 -168 107 -168q80 0 144.5 107.5t92 218t27.5 167.5q0 55 -24.5 101.5t-75.5 46.5q-76 0 -141.5 -93.5t-97.5 -201t-32 -178.5z" />
<glyph unicode="A" horiz-adv-x="1593" d="M27 14q0 16 17 27.5t41 22t52.5 36t44.5 64.5l555 1239q2 6 8.5 19.5t9.5 20.5t8 15t11 12.5t14 4.5q14 0 21.5 -10.5t28.5 -55.5l553 -1253q23 -49 55.5 -73t58 -24t44 -7t18.5 -29q0 -25 -12.5 -28t-61.5 -3q-29 0 -108.5 4t-155.5 4q-49 0 -124 -4t-101 -4h-11.5 h-11.5h-10t-9.5 1t-7.5 2t-6 3l-4 4t-3 6t-1 8q0 18 22.5 32.5t50 24t50 36t22.5 69.5q0 47 -36 137q-53 123 -72.5 152t-58.5 29h-404q-23 0 -38 -6.5t-39.5 -40t-47.5 -97.5q-43 -123 -43 -162q0 -49 35 -79.5t76 -40t75.5 -20.5t34.5 -30q0 -12 -6 -19t-19.5 -9t-24.5 -2 t-29.5 1t-26.5 1q-33 0 -96.5 4t-96.5 4q-31 0 -91 -4t-89 -4h-11h-13.5h-11.5t-10 2t-7 4t-6 6t-2 10zM510 625q-1 -19 65 -19h279q66 0 66 19q0 23 -23 75l-168 371l-8 12q-2 4 -8 4q-12 0 -23 -24l-158 -363q-23 -53 -22 -75z" />
<glyph unicode="B" horiz-adv-x="1366" d="M4 1411q0 31 35 31q4 0 15.5 -2t39 -4t68.5 -2q88 0 261 4t259 4q141 0 243.5 -34t150.5 -75t76 -100t31 -87t3 -56q0 -98 -58.5 -176t-164.5 -113v-4q182 -47 254.5 -131t72.5 -228q0 -205 -137 -325.5t-385 -120.5q-178 0 -330.5 4t-179.5 4q-25 0 -75 -4t-70 -4 q-39 0 -53.5 6t-14.5 26.5t27.5 34t60.5 22.5t60.5 48t27.5 107v905q0 96 -33.5 146t-74.5 57.5t-75 21.5t-34 45zM473 326q0 -147 52.5 -199.5t199.5 -52.5t226 89t79 243q0 53 -16.5 100t-58.5 97t-134 80t-223 30q-84 0 -104.5 -34t-20.5 -124v-229zM473 922 q0 -74 23.5 -92.5t115.5 -24.5h123q115 0 165 56.5t50 172.5q0 139 -97 229.5t-237 90.5q-51 0 -80.5 -12.5t-43 -43t-16.5 -58.5t-3 -81v-237z" />
<glyph unicode="C" horiz-adv-x="1478" d="M51 664q0 106 25.5 214.5t83 214t139.5 186.5t206 131t273 50q109 0 211.5 -31.5t169 -62.5t87 -31t39 34t30.5 34q24 0 24 -12l37 -390q1 -11 1 -21q0 -46 -24 -46h-1q-10 0 -17.5 4t-14.5 13.5t-11 15.5t-10.5 19t-8.5 18q-84 162 -219 268t-301 106q-213 0 -340 -170 t-127 -391q0 -90 19.5 -183t63.5 -185.5t106.5 -164t157.5 -116.5t208 -45q109 0 205 42t149.5 92t97.5 92t58 42q8 0 18.5 -7t10.5 -15q0 -35 -43 -96.5t-119 -129t-208 -117t-284 -49.5q-170 0 -301 57.5t-202.5 137.5t-116.5 181.5t-58.5 175t-13.5 135.5z" />
<glyph unicode="D" horiz-adv-x="1593" d="M10 1409q0 14 12.5 23.5t24.5 9.5t42 -2t91.5 -4t149.5 -2q53 0 158.5 4t158.5 4q870 0 871 -674q0 -168 -57.5 -307t-144.5 -223t-192.5 -142.5t-196.5 -81t-163 -22.5q-141 0 -276.5 4t-151.5 4q-33 0 -95.5 -4t-93.5 -4h-15h-16h-15.5t-13.5 2t-11 5t-8 8t-2 13 q0 25 25.5 36.5t56 16.5t56 37t25.5 95v987q0 57 -22.5 94t-55 51.5t-64.5 22.5t-54.5 18.5t-22.5 30.5zM481 219q0 -149 229 -149h3q248 0 397.5 161.5t149.5 470.5q0 68 -13.5 145t-55.5 172t-106.5 169t-178 125t-259.5 51q-109 0 -137.5 -39t-28.5 -154v-952z" />
<glyph unicode="E" horiz-adv-x="1251" d="M0 1407q0 35 45 35q14 0 187.5 -4t357.5 -4q68 0 220.5 4t246.5 4q18 0 29.5 -12.5t11.5 -26.5l8 -203q1 -15 1 -27q0 -67 -36 -67q-23 0 -32 17.5t-9 44t-13 58t-37 58.5t-86.5 44.5t-154.5 17.5h-106.5t-69.5 -6.5t-46 -12.5t-20.5 -25.5t-12.5 -39t-1 -60.5v-287 q0 -70 12.5 -86t75.5 -16h129q78 0 124 47t65.5 94t34.5 47h9t9 -2t10 -7t6.5 -15t4.5 -27l14 -364q6 -20 1 -60.5t-36 -40.5q-20 0 -32.5 34t-21.5 75t-52 74.5t-115 33.5h-152q-33 0 -50 -3t-25.5 -20t-9.5 -32.5t-1 -60.5v-27v-262v-18q0 -55 2 -80t14.5 -53.5t42 -39 t81.5 -10.5q119 0 211 19.5t142 50.5t86 64.5t52 64.5t32.5 50.5t33.5 19.5q23 0 22 -46q0 -125 -84 -226t-205 -101q-182 0 -347 4t-189.5 4t-111.5 -4t-150 -4q-39 0 -39 22q0 25 16.5 36t39 16.5t45 17.5t38.5 53t16 111v958q0 63 -35.5 97t-79.5 41.5t-80 21.5t-36 41z " />
<glyph unicode="F" d="M-6 1407q0 35 45 35q14 0 186 -4t359 -4q68 0 220 4t247 4q18 0 29.5 -12.5t11.5 -26.5l8 -203q1 -15 1 -27q0 -67 -36 -67q-23 0 -32 17.5t-9 44t-13.5 58t-37 58.5t-86 44.5t-154.5 17.5h-106.5t-69.5 -6.5t-46 -12.5t-20.5 -25.5t-12.5 -39t-1 -60.5v-287 q0 -70 12.5 -86t75.5 -16h129q59 0 102.5 29.5t60.5 64.5t32.5 64.5t28.5 29.5h9t9 -2t10 -7l6 -15t4 -27l15 -364q6 -20 1 -60.5t-36 -40.5q-20 0 -32.5 34t-22 75t-52.5 74.5t-114 33.5h-152q-33 0 -50 -3t-25.5 -20t-9.5 -32.5t-1 -60.5v-27v-303q0 -78 36 -124t80 -57.5 t80 -22.5t36 -27q0 -8 -2 -14.5t-8.5 -10.5t-11.5 -6t-14 -2h-16.5h-20.5h-22q-37 0 -116.5 4t-126.5 4q-27 0 -113 -4t-149 -4q-39 0 -39 22q0 25 16 36t38.5 16.5t45.5 17.5t39 53t16 111v958q0 63 -35.5 97t-79.5 41.5t-80 21.5t-36 41z" />
<glyph unicode="G" horiz-adv-x="1593" d="M51 664q0 106 25.5 214.5t83 214t139.5 186.5t206 131t273 50q125 0 240 -33.5t185.5 -66.5t86.5 -33q25 0 46.5 28.5t35.5 28.5h1q30 0 30 -77v-342q0 -37 -51 -37q-10 0 -24.5 46t-46.5 111.5t-86 131t-164.5 111.5t-262.5 46q-61 0 -120.5 -16.5t-123 -61.5 t-110.5 -114.5t-77 -185t-30 -265.5q0 -152 47 -295t160 -250.5t268 -107.5q106 0 180 20.5t111 46t57.5 71.5t23.5 76t3 77q0 109 -38 163t-84 57t-84 9t-38 29q0 16 6.5 26.5t19.5 14.5t23.5 4t28 -1t23.5 -1q47 0 143 -4t143 -4q39 0 112 4t110 4q23 0 22 -29 q0 -23 -14 -33t-34.5 -15t-42 -18.5t-36 -56.5t-14.5 -117q0 -49 3 -105t3 -65q0 -41 -20 -53q-367 -201 -646 -201q-170 0 -301 57.5t-202.5 137.5t-116.5 181.5t-58.5 175t-13.5 135.5z" />
<glyph unicode="H" horiz-adv-x="1705" d="M12 1409q0 33 101 33q25 0 97.5 -4t131.5 -4q70 0 156 4t108 4q47 0 47 -31q0 -20 -24.5 -30.5t-54 -17.5t-54 -42t-24.5 -96v-326q0 -45 10 -63.5t41 -18.5h608q72 0 72 92v289q0 63 -23.5 102t-56.5 52.5t-65.5 20.5t-56.5 13.5t-24 22.5q0 6 1.5 11t2.5 9.5t4 6.5t5 3 t8 2t7 1h9.5h10.5q37 0 115.5 -4t148.5 -4q55 0 142 4t128 4q43 0 43 -24.5t-22.5 -35t-51 -14.5t-51 -38.5t-22.5 -102.5v-946q0 -72 21.5 -119t53 -64.5t63.5 -28t53.5 -21.5t21.5 -32q0 -18 -9.5 -21t-33.5 -3q-31 0 -129.5 4t-143.5 4q-33 0 -117.5 -4t-140.5 -4 q-41 0 -41 22.5t23.5 35.5t51.5 23.5t51.5 49.5t23.5 106v369q0 80 -13 92q-16 16 -71 17h-547q-68 0 -84 -19.5t-16 -91.5v-322q0 -86 39.5 -135t87 -59t87.5 -23.5t40 -36.5q0 -10 -1 -14t-15.5 -9t-45.5 -5q-35 0 -126 4t-173 4q-41 0 -131 -4t-143 -4q-45 0 -45 31 q0 25 27.5 40t59 25t59.5 60.5t28 136.5v913q0 76 -36 116t-80 45t-80 15t-36 35z" />
<glyph unicode="I" horiz-adv-x="796" d="M41 1413q0 29 70 29q41 0 118.5 -4t112.5 -4q31 0 116 4t148 4q47 0 59.5 -5t12.5 -24q0 -23 -23.5 -33t-53.5 -15t-53.5 -40.5t-23.5 -101.5v-977q0 -86 36 -131t79 -51.5t79 -13.5t36 -27q0 -31 -66 -31q-27 0 -124 4t-187 4q-49 0 -128 -4t-101.5 -4t-22.5 24 q0 23 23.5 37.5t50 23.5t50 48t23.5 104v983q0 63 -35.5 99.5t-79.5 44.5t-80 21.5t-36 35.5z" />
<glyph unicode="J" horiz-adv-x="796" d="M-23 -295q0 49 23 130t57 81q14 0 38 -36t55.5 -71.5t66.5 -35.5q78 0 78 219v1171q0 80 -24.5 126t-59.5 57.5t-70 15.5t-59.5 15.5t-24.5 41.5q0 23 72 23h18q12 0 89 -4t147 -4q66 0 132.5 4t84.5 4h12.5h13.5h12t12 -1t10.5 -3t8.5 -6.5t5 -9.5t2 -11 q0 -16 -20.5 -27.5t-44 -18.5t-44 -36t-20.5 -76v-1028q0 -250 -124 -429t-298 -179q-57 0 -93 19.5t-45.5 38t-9.5 30.5z" />
<glyph unicode="K" horiz-adv-x="1478" d="M12 1411q0 31 41 31q6 0 85 -4t161 -4q66 0 170 4t115 4q43 0 43 -25q0 -23 -15.5 -30t-37 -10t-43 -13t-37 -45t-15.5 -98v-469q2 -47 10 -47q14 -2 52 34l270 265q4 4 61.5 58t91 89t68.5 85t35 83t-62.5 47t-62.5 37q0 18 7 26.5t15.5 10.5t24.5 2q6 0 96.5 -4 t126.5 -4q20 0 82 4t111 4q53 0 53 -35q0 -18 -14 -25.5t-42 -13.5t-85 -41t-123 -94l-360 -334q-45 -37 -46 -59q0 -18 50 -84l391 -527q70 -94 133 -136t90 -49t27 -26q0 -27 -27 -26q-20 0 -72.5 4t-81.5 4q-16 0 -61 -4t-76 -4q-33 0 -52 10t-48 49l-408 559 q-43 57 -51 58q-20 0 -96 -86q-6 -8 -11.5 -14.5t-8.5 -13.5t-4 -11t-2 -14.5t-1 -12.5v-16.5v-18.5v-268q0 -63 32 -99t68.5 -43.5t68.5 -19.5t32 -35q0 -14 -11.5 -19t-45.5 -5q-20 0 -91 4t-137 4q-53 0 -147 -4t-121 -4q-63 0 -64 16q0 23 12.5 35t31 14t39 13.5t39 30 t30.5 65.5t12 121v891q0 70 -22.5 110.5t-54 53t-62.5 18.5t-53.5 16t-22.5 35z" />
<glyph unicode="L" horiz-adv-x="1251" d="M4 1407q0 35 66 35q41 0 140 -4t138 -4q76 0 126 2t72.5 4t33.5 2q33 0 43 -4t10 -23q0 -25 -22.5 -36t-50.5 -13t-50.5 -29t-22.5 -80v-960v-18q0 -55 2.5 -80t14.5 -53.5t41.5 -39t81.5 -10.5q119 0 211 19.5t142 50.5t86 64.5t52.5 64.5t32.5 50.5t33 19.5 q23 0 22 -46q0 -125 -84 -226t-204 -101q-182 0 -347 4t-190 4t-112 -4t-150 -4q-39 0 -39 22q0 25 16.5 36t39 16.5t45 17.5t39 53t16.5 111v969q0 59 -36 92.5t-80 41t-80 20.5t-36 36z" />
<glyph unicode="M" horiz-adv-x="1820" d="M10 1413q0 10 7.5 19.5t17.5 9.5q8 0 47 -4t76 -4q20 0 86.5 4t103.5 4q16 0 23.5 -2t21 -15.5t27.5 -42.5l450 -983q14 -33 27 -32q8 0 19.5 17t13.5 26l475 991q0 2 2 6l3 6l3 6t5 7.5t6 6.5t8.5 5t11.5 3t12 1q27 0 67 -4t52 -4q16 0 59 4t74 4q39 0 49 -5t10 -20 q0 -23 -30.5 -34t-68.5 -19t-66 -52q-27 -41 -27 -114v-10l35 -907q2 -74 23.5 -121t50 -63.5t57 -23.5t48 -16.5t19.5 -29.5q0 -25 -19.5 -30t-78.5 -5q-31 0 -88 4t-88 4q-78 0 -147.5 -4t-81.5 -4h-15.5h-14.5h-13.5t-14.5 1l-12 2t-10 3t-7.5 5t-5.5 8t-2 12 q0 18 16.5 27t39 18.5t44.5 25.5q24 14 38 54q11 31 11 77q0 13 -1 27l-31 620q-4 92 -16 93q-14 0 -64 -109l-387 -809q-2 -4 -5 -11t-5 -11.5t-5 -11.5t-7 -10t-8.5 -6t-10.5 -5t-12 -2q-8 0 -14.5 3t-10.5 6t-9 11t-7 12.5l-6 13.5t-4 11l-398 883q-18 35 -22 35 q-14 -1 -14 -52l-21 -573q-1 -15 -1 -30q0 -78 18 -128q22 -60 53.5 -81t63.5 -29.5t55.5 -16.5t23.5 -30v-5v-6t-1 -6t-4 -6t-8 -5t-14.5 -4t-21.5 -1q-35 0 -98.5 4t-112.5 4q-59 0 -128 -4t-75 -4q-39 0 -39 28q0 23 27 38.5t58.5 26.5t60 55t30.5 118l29 823v21 q0 66 -11 114q-13 56 -37 81.5t-51.5 42t-51 22.5t-40 18.5t-16.5 32.5z" />
<glyph unicode="N" horiz-adv-x="1705" d="M12 1407q0 35 35 35q18 0 57 -4t58 -4q20 0 86.5 4t128.5 4q25 0 36 -3t14 -8.5t10 -17.5t18 -24l823 -904q49 -53 63 -53q16 0 17 76v682q0 63 -39 102t-86 51.5t-86 27.5t-39 36q0 35 33 35q2 0 75.5 -4t157.5 -4q57 0 107.5 2t79 4t32.5 2q39 0 39 -27 q0 -18 -27.5 -31.5t-59.5 -23.5t-59.5 -54t-27.5 -118v-1149q0 -27 -1 -37t-6 -17.5t-17 -7.5q-29 0 -54 29l-985 1065q-23 27 -37 27q-16 0 -16 -33v-696q0 -92 19.5 -155.5t48 -89.5t63.5 -41t63.5 -18t48 -13.5t19.5 -33.5q0 -26 -73 -26h-5q-53 0 -131 4t-110 4 q-35 0 -92.5 -4t-83.5 -4q-4 0 -15.5 -1t-17.5 0t-14.5 2t-12.5 7t-4 16q0 27 30.5 46.5t67.5 34t68 58t31 115.5v779q0 111 -23.5 178t-57.5 90.5t-68 33t-57.5 20.5t-23.5 36z" />
<glyph unicode="O" horiz-adv-x="1593" d="M51 670q0 346 202 567t560 223h13q297 0 492 -186q200 -190 200 -508q0 -98 -17.5 -193.5t-70 -207t-134.5 -194.5t-226 -138.5t-331 -55.5q-309 0 -498.5 191t-189.5 502zM303 786q0 -94 15.5 -190t53.5 -193.5t93 -172t142 -120.5q82 -44 179 -44h13q248 4 357.5 173 t109.5 447q0 324 -152 507q-148 179 -353 179h-9q-125 -2 -215.5 -51t-139.5 -134t-71.5 -183.5t-22.5 -217.5z" />
<glyph unicode="P" horiz-adv-x="1251" d="M14 1403q0 39 58 39q2 0 41 -2t105.5 -4t135.5 -2q10 0 59.5 2t123 4t137.5 2h18q92 0 173 -18q89 -20 164 -65.5t118 -125.5t43 -189q0 -188 -123 -299.5t-311 -111.5q-90 0 -142.5 14.5t-60.5 25.5t-8 19q0 39 28 40q4 0 37 -6.5t60 -6.5q70 0 122 25.5t78.5 58.5 t43 79t20.5 71.5t4 50t-3 58.5t-22.5 88t-52.5 97t-99.5 76t-156.5 33q-68 0 -96.5 -31.5t-28.5 -101.5v-951q0 -59 15.5 -101t38 -61.5t50 -31.5t50 -16.5t38 -13.5t15.5 -25q0 -14 -6 -21.5t-12 -8.5t-23 -1h-8q-84 0 -176 4t-103 4q-37 0 -96 -2t-105 -4t-51 -2 q-43 0 -43 31q0 18 26 32.5t56.5 28.5t56 67.5t25.5 141.5v901q0 74 -33.5 113t-72.5 45t-73 16t-34 35z" />
<glyph unicode="Q" horiz-adv-x="1593" d="M51 670q0 346 202 567t560 223h13q296 0 492 -186q200 -189 200 -508q0 -182 -55.5 -327.5t-133.5 -225.5t-155.5 -131t-133 -75.5t-55.5 -31.5q0 -33 139.5 -105.5t221.5 -72.5q53 0 104 29t59 29q18 0 19 -27q0 -18 -47 -65.5t-131 -91.5t-162 -44q-139 1 -291 97 l-401 256q-37 20 -54 20q-61 0 -103 -43t-56.5 -93t-28.5 -93t-29 -43q-31 0 -39 19.5t-8 55.5q0 72 21.5 129.5t46 83t46 46t21.5 26.5q0 10 -41 54t-90 102.5t-90 173t-41 252.5zM303 786q0 -121 27.5 -242.5t83 -234t156 -183.5t229.5 -71q121 0 212 48.5t138 115 t74.5 160.5t35 162.5t7.5 144.5q0 324 -152 507q-148 179 -353 179h-9q-125 -2 -215.5 -51t-139.5 -134t-71.5 -183.5t-22.5 -217.5z" />
<glyph unicode="R" horiz-adv-x="1478" d="M12 1411q0 31 45 31q43 0 106.5 -4t133.5 -4q68 0 207 4t207 4q127 0 222 -32t144 -75t79 -101t37 -98t7 -77q0 -158 -119 -256q-23 -18 -55.5 -36.5t-47.5 -30t-15 -19.5q0 -4 321 -567q18 -33 74 -33q10 0 30.5 6t30.5 6q31 0 31 -29q0 -45 -73.5 -76.5t-143.5 -31.5 q-57 0 -102.5 19.5t-82 63.5t-55 72.5t-51.5 92.5l-172 323q-35 68 -71.5 88.5t-114.5 20.5q-20 0 -34.5 -1t-26 -1t-17.5 -6.5t-10 -7.5t-6.5 -12t-2.5 -14v-20.5v-23.5v-355q0 -74 32 -113.5t70 -45.5t69.5 -16t31.5 -33q0 -31 -63 -31q-10 0 -68.5 4t-107.5 4 q-57 0 -162 -4t-154 -4h-10h-12t-12.5 1t-12.5 3t-9 6t-7 10t-2 15q0 16 17 25t41 19.5t48.5 28t42 64.5t17.5 119v901q0 78 -35 121t-77 51t-77 20.5t-35 34.5zM487 817q0 -18 11.5 -29.5t36 -15.5t42 -5t48.5 -1q111 0 180 18.5t99 56.5t37 70.5t7 89.5q0 156 -85 254.5 t-236 98.5q-31 0 -45.5 -1t-36 -7.5t-31.5 -18.5t-18.5 -36.5t-8.5 -59.5v-414z" />
<glyph unicode="S" d="M99.5 467.5q0.5 32.5 33.5 32.5q16 0 25.5 -7.5t11.5 -13.5l8 -24q55 -168 158.5 -275.5t261.5 -107.5q123 0 203 70.5t80 191.5q0 33 -7.5 59.5t-16.5 47t-35.5 42t-45 34.5t-64.5 35.5t-78 36t-99.5 42t-112.5 49.5q-152 68 -224.5 145.5t-72.5 227.5 q0 178 112.5 292.5t290.5 114.5q98 0 198.5 -40t117.5 -40q12 0 51 16.5t53 16.5q8 0 14.5 -3t8.5 -11t3 -15.5t2 -22.5t1 -26l22 -274q4 -37 -5 -53.5t-42 -16.5q-12 0 -28.5 39t-43 95.5t-67.5 112.5t-116.5 95t-174.5 39q-102 0 -164.5 -57.5t-62.5 -157.5q0 -23 3 -41 t14.5 -35.5t21.5 -31t32.5 -28.5t40 -25.5t53.5 -27t61.5 -27.5t75.5 -31.5t85 -37.5q92 -41 149.5 -74.5t108.5 -84.5t73.5 -121t22.5 -164q0 -201 -127 -326t-329 -125q-55 0 -112.5 12.5t-127.5 34t-109 29.5q-8 2 -14 4t-10 4t-8 5.5t-7.5 5.5t-5.5 7t-3 7t-3 9l-3 10.5 t-3 12.5t-2 13l-63 281q-10 23 -9.5 55.5z" />
<glyph unicode="T" horiz-adv-x="1478" d="M44 1076q-1 3 0 11.5t1 12.5t2 12t2 10l33 271q4 49 33 49q82 0 272.5 -4t354 -4t354 4t272.5 4q29 0 33 -49l22 -189q8 -18 8.5 -61t-34.5 -43q-23 0 -35 23.5t-22.5 56t-28 65.5t-59.5 55q-38 20 -96 19h-11h-174q-66 0 -85.5 -18.5t-19.5 -90.5v-925q0 -86 41 -136.5 t90.5 -62.5t90 -23.5t40.5 -27.5q0 -8 -1 -14.5t-5 -11.5t-7 -8t-9 -5t-11 -3t-14.5 -1h-15.5h-18.5h-18.5q-35 0 -123 4t-163.5 4t-164 -4t-122.5 -4q-27 0 -37 1t-22.5 11t-12.5 30.5t23.5 30t58.5 14.5t68.5 18.5t57 54t23.5 108.5v950q0 72 -19.5 90.5t-84.5 18.5h-172 q-78 0 -125 -42t-59.5 -92t-31 -92t-46.5 -42q-8 0 -13.5 2t-9.5 5t-6 9z" />
<glyph unicode="U" horiz-adv-x="1705" d="M14 1409q0 33 43 33q4 0 113 -4t170 -4t169.5 4t119.5 4q23 0 22 -29q0 -18 -17.5 -24.5t-43 -14.5t-51 -27.5t-43 -78t-17.5 -152.5v-444q0 -127 19.5 -223.5t66.5 -179.5t138.5 -127t224.5 -44q119 0 205 38t134 96.5t76.5 151.5t37 180t8.5 204v406q0 66 -26 108.5 t-63.5 59t-74.5 26.5t-62.5 20.5t-25.5 30.5q0 10 3 15.5t11 7.5t14 2t17.5 -1t15.5 -1q119 -8 172 -8q29 0 234 8q37 0 36 -27q0 -14 -14 -20t-35.5 -12.5t-43 -20.5t-36 -54t-14.5 -106v-463q0 -135 -16.5 -240.5t-61.5 -205.5t-119.5 -168t-197.5 -108t-287 -40 q-588 0 -588 576v668q0 59 -33.5 92t-72.5 39t-73 19t-34 38z" />
<glyph unicode="V" horiz-adv-x="1593" d="M37 1409q0 14 6 22.5t18.5 10.5t22.5 2t25.5 -1t21.5 -1q33 0 102.5 -4t104.5 -4q78 0 148.5 4t74.5 4h10q45 0 55.5 -4t10.5 -29q0 -18 -19.5 -28.5t-42 -15.5t-42 -21.5t-19.5 -45.5q0 -92 78 -282l266 -660q18 -43 29 -43q8 0 26 43l281 623q66 145 66 242 q0 66 -33 100.5t-71 39.5t-70.5 15t-32.5 33q0 8 3 14.5t9 9.5t12 5t16.5 3t15.5 1h15.5h12.5q31 0 88 -4t88 -4q29 0 86 4t86 4h17h16.5h12.5t11 -2t8 -5t5 -8.5t1 -13.5q0 -18 -22.5 -32.5t-57 -44.5t-59.5 -81l-557 -1230q-16 -41 -27.5 -53.5t-27.5 -12.5q-33 0 -78 107 l-510 1191q-27 59 -55.5 83t-91.5 40q-33 10 -33 29z" />
<glyph unicode="W" horiz-adv-x="2048" d="M23 1409q0 33 43 33q4 0 64 -4t136 -4q80 0 133.5 2t77 4t33.5 2q47 0 47 -27q0 -31 -57.5 -53.5t-57.5 -61.5q0 -26 25 -102l268 -801q18 -57 29 -57q14 0 22 18l215 455q33 76 33 82q0 8 -5 26.5t-14 43t-14 34.5l-102 297q-12 33 -36.5 51.5t-47 21.5t-40 12.5 t-17.5 27.5q0 33 43 33q4 0 64.5 -4t135.5 -4q80 0 133.5 2t77 4t33.5 2q47 0 47 -27q0 -31 -57 -53.5t-57 -61.5q0 -27 24 -102l238 -717q4 -12 10 -32.5t9 -31.5t8.5 -23.5t10.5 -17.5t11 -5t45 106l209 606q20 59 20 158q0 53 -29.5 84t-64.5 36t-64.5 15t-29.5 27 q0 39 51 39q6 0 67.5 -4t100.5 -4q80 0 132 4t61 4q37 0 36 -25q0 -16 -11 -25.5t-26.5 -15.5t-38 -32.5t-38.5 -73.5l-461 -1270q-14 -41 -43 -41q-18 0 -28.5 12.5t-22.5 48.5l-262 723q-6 14 -17 15q-12 0 -16 -15l-350 -743q-14 -41 -43 -41q-18 0 -28.5 12.5 t-23.5 48.5l-450 1276q-12 33 -37 51.5t-47.5 21.5t-39.5 12.5t-17 27.5z" />
<glyph unicode="X" horiz-adv-x="1478" d="M20 14q0 16 19.5 28.5t48.5 23t67.5 36t67.5 62.5l340 420q57 76 58 84q0 16 -64 110l-219 334q-70 106 -135.5 167.5t-101 74t-57 24t-21.5 35.5q0 29 47 29q12 0 97 -4t175 -4t168 4t92 4q20 0 30.5 -5t11.5 -8.5t1 -11.5q0 -20 -29.5 -34.5t-58.5 -33t-29 -49.5 q0 -25 27 -69l195 -316q23 -37 36 -36q6 0 13.5 6t19.5 23.5t15 19.5l167 215q80 102 80 151q0 39 -38.5 57.5t-77.5 29t-39 28.5q0 33 41 33q53 0 120.5 -4t92.5 -4q27 0 97.5 4t125.5 4q45 0 45 -33q0 -14 -23.5 -24.5t-59.5 -21.5t-92 -52t-108 -107l-243 -311 q-68 -84 -68 -100q0 -8 2 -16.5t9 -21t10.5 -18.5t16.5 -23.5t19 -25.5l312 -448q45 -63 92 -106.5t75.5 -58t48 -26.5t19.5 -26q0 -20 -20.5 -25.5t-85.5 -5.5q-14 0 -76 5q-44 4 -86 4q-17 0 -33 -1q-209 -8 -235 -8h-9q-51 0 -51 28q0 20 17.5 33t39 17t39 19t17.5 42 q0 47 -49 117l-187 264q-53 76 -59 76q-4 0 -66 -82l-168 -221q-69 -93 -69 -143q0 -38 28.5 -56t63.5 -21.5t63.5 -14.5t28.5 -34q0 -24 -49 -24h-4q-55 0 -124 4t-91 4q-35 0 -100.5 -4t-98.5 -4h-14h-13.5h-11.5h-10t-8 1t-7 3t-5 4t-3.5 6t-1.5 8z" />
<glyph unicode="Y" horiz-adv-x="1366" d="M23 1417q0 16 15 20.5t56 4.5q10 0 69.5 -4t119.5 -4q174 0 299 8q35 2 34 -27q0 -20 -56 -41.5t-56 -58.5q0 -35 28 -94l185 -381q45 -95 63.5 -95t50.5 62l187 338q37 66 37 112q0 45 -31 72t-68.5 33t-68.5 17.5t-31 31.5q0 31 39 31q4 0 58.5 -4t117.5 -4 q90 0 154.5 4t81.5 4q37 0 36 -23q0 -18 -17 -30.5t-43 -24.5t-69 -60.5t-84 -123.5l-268 -508q-26 -51 -26 -124v-5v-305q0 -88 38.5 -128t87 -40t87 -10.5t38.5 -43.5q0 -24 -60 -24h-5l-25 2q-25 2 -96.5 4t-183.5 2q-109 0 -199 -4t-102 -4q-55 0 -56 22q0 29 35 40.5 t77 16.5t77 50t35 133v266q0 70 -33 129l-324 606q-27 49 -65.5 78t-67 35t-50 17.5t-21.5 31.5z" />
<glyph unicode="Z" horiz-adv-x="1251" d="M72 6q0 10 13 36t35.5 61.5t29.5 48.5l602 1038q41 63 41 94q0 53 -195 53h-14h-37q-104 0 -176 -18.5t-102.5 -45t-50 -59t-24 -59.5t-16.5 -45t-35 -18q-24 0 -24 50q0 16 2 36l33 264q8 0 154.5 -4t230.5 -4q104 2 269 4t269 4h25h31t16 -2t10 -6t2 -13 q0 -16 -86 -166l-608 -1056q-29 -57 -29 -66q0 -37 189 -37q119 0 211 19.5t142 50.5t86 64.5t52.5 64.5t32.5 50.5t33 19.5q23 0 22 -46q0 -125 -84 -226t-204 -101q-182 0 -347 4t-190 4q-49 0 -148.5 -4t-121.5 -4q-39 0 -39 14z" />
<glyph unicode="[" horiz-adv-x="681" d="M129 -274v1800h479v-76h-176q-70 0 -93.5 -13.5t-23.5 -66.5v-1489q0 -53 23.5 -66.5t93.5 -13.5h176v-75h-479z" />
<glyph unicode="\" horiz-adv-x="1241" d="M137 1526h205l762 -1526h-205z" />
<glyph unicode="]" horiz-adv-x="681" d="M61 -199h177q70 0 93 13.5t23 66.5v1489q0 53 -23.5 66.5t-92.5 13.5h-177v76h480v-1800h-480v75z" />
<glyph unicode="^" horiz-adv-x="1241" d="M106 608l422 826h185l422 -826h-195l-319 602l-320 -602h-195z" />
<glyph unicode="_" horiz-adv-x="1024" d="M0 -176h1024v-105h-1024v105z" />
<glyph unicode="`" horiz-adv-x="681" d="M27 1274q0 18 22.5 45t59.5 27q29 0 49 -16.5t88 -86.5l250 -258h-95l-284 180q-4 2 -14.5 8.5t-14.5 9.5t-13 9t-13.5 10t-11.5 10.5t-10 12.5l-7 14t-5 16.5t-1 18.5z" />
<glyph unicode="a" horiz-adv-x="909" d="M43 170q0 41 9 76t28.5 62.5t40 49t55.5 40t60.5 30.5t70.5 25.5t72 20.5t76 18.5t71 17.5q0 156 -32.5 228.5t-143.5 72.5q-57 0 -75.5 -21.5t-18.5 -93.5q0 -33 -19.5 -55.5t-49 -29.5t-46 -9t-30.5 -2q-53 0 -54 43q0 63 38 111.5t97.5 74t120 38t119.5 12.5 q160 0 235.5 -73.5t75.5 -227.5v-353q0 -82 8.5 -104.5t47.5 -22.5q14 0 36.5 5.5t28.5 5.5q23 0 23 -19q0 -31 -72 -72t-127 -41q-109 0 -133 125q-154 -125 -319 -125q-84 0 -138.5 54.5t-54.5 138.5zM270 233q0 -135 109 -135q45 0 96 19.5t51 50.5v199v24v23.5t-1 15.5 t-4 8t-9 2q-76 0 -159 -57t-83 -150z" />
<glyph unicode="b" horiz-adv-x="1024" d="M10 1372q0 16 11.5 24.5t37 15.5t56 15.5t82 31t104.5 52.5q25 14 35 15q18 0 18 -56v-729q137 137 275 138q152 0 238.5 -111t86.5 -266q0 -242 -120.5 -383.5t-311.5 -141.5q-82 0 -144.5 21.5t-94 43t-39.5 21.5q-14 0 -44 -43t-55 -43q-23 0 -22 23q0 4 4 24.5 t7 58.5t3 83v1073q0 51 -19.5 74.5t-44 22.5t-44 6.5t-19.5 29.5zM354 262q0 -59 24.5 -104t60.5 -66.5t68 -31t58 -9.5q115 0 163 89t48 212q0 139 -68.5 262t-197.5 123q-53 0 -104.5 -30.5t-51.5 -79.5v-365z" />
<glyph unicode="c" horiz-adv-x="909" d="M51 387q0 207 140.5 349.5t347.5 142.5q45 0 99 -12.5t106.5 -50.5t52.5 -91q0 -27 -62.5 -76t-89.5 -49q-18 0 -27 31q-20 84 -57 126t-112 42q-193 0 -193 -275q0 -160 83 -289t218 -129q72 0 160 54.5t94 54.5q20 0 20 -25q0 -49 -120.5 -131t-261.5 -82 q-174 0 -286 117t-112 293z" />
<glyph unicode="d" horiz-adv-x="1024" d="M45 331q-3 29 -3 57q0 61 15 116q33 156 141.5 265.5t262.5 109.5q135 -1 186 -52v412q0 51 -21.5 74.5t-47 22.5t-47 6.5t-21.5 30t30.5 31.5t110.5 33.5t160 73.5q25 14 35 15q4 0 8 -1t6 -4t3 -6.5t1 -9.5v-9v-12v-14v-1245q0 -57 21.5 -84.5t47 -28.5t47 -7.5 t21.5 -26.5q0 -18 -35.5 -28.5t-102 -23t-105.5 -24.5q-74 -25 -84 -25q-18 0 -22.5 25t-4.5 111q-131 -135 -289 -136q-100 0 -171.5 52.5t-101.5 130.5t-40 171zM223 494q0 -72 25.5 -155t87 -151.5t141.5 -68.5q90 0 144 45q8 6 13 14t8 13.5t4 15.5t1 14v17.5v19.5v410 q-84 135 -225 135q-76 0 -123 -53.5t-61.5 -118t-14.5 -137.5z" />
<glyph unicode="e" horiz-adv-x="909" d="M61 387q0 195 105.5 343.5t292.5 148.5q127 0 219 -64.5t129 -139.5t37 -136q0 -20 -4 -31.5t-8.5 -12.5t-12.5 -1h-504q-6 0 -15 1t-12 0t-8.5 -2t-6.5 -7.5t-2 -16.5t-1 -27q0 -135 86 -235.5t217 -100.5q72 0 160 54.5t94 54.5q20 0 21 -25q0 -49 -121 -131t-262 -82 q-166 0 -285 105.5t-119 304.5zM268 604q1 -39 11 -39h296q16 0 22.5 1t13.5 5t9.5 16.5t2.5 33.5q0 70 -49.5 134t-137.5 64q-84 0 -126 -65.5t-42 -149.5z" />
<glyph unicode="f" horiz-adv-x="681" d="M45 741v111h76q63 0 63 31q14 219 49 309q47 123 137.5 217t202.5 94q109 0 109 -67q0 -35 -20.5 -96.5t-47.5 -61.5q-12 0 -36.5 53t-71.5 53q-35 0 -56.5 -18t-28.5 -56t-9 -59.5t-2 -62.5v-301v-10.5v-10.5t1 -7t4 -5t9 -2h143q27 0 39 22.5t27 22.5q12 0 12 -14 q0 -4 -27 -76q-4 -8 -10 -27.5t-12 -29t-18 -9.5h-138q-31 0 -30 -49v-497q0 -63 26.5 -95t59 -34.5t59.5 -12.5t27 -35q0 -27 -37 -26q-10 0 -88 4t-135 4q-45 0 -116 -4t-87 -4q-29 0 -29 28q0 20 16.5 29.5t35 11.5t35 19.5t16.5 54.5v531q0 75 -34 75h-1h-113z" />
<glyph unicode="g" horiz-adv-x="909" d="M51 -236q0 78 59.5 119t94.5 41q-2 2 -8.5 7.5t-11.5 9.5t-12 12t-13 16t-13.5 19.5t-11.5 24t-9 27.5t-7 33.5t-2 39.5q0 119 108 196q-92 57 -130 110.5t-38 149.5q0 143 104.5 226.5t262.5 83.5q80 0 172 -36t117 -36q53 0 82.5 32.5t42 64.5t22.5 32q23 0 23 -55 q0 -47 -5.5 -83t-10.5 -55.5t-18 -37t-18.5 -21.5t-20.5 -13t-17 -9v-18.5t1 -12.5t1 -31v-11q0 -47 -15 -95q-18 -52 -58 -102t-119 -81.5t-187 -31.5q-14 0 -48 2t-57 2q-86 0 -86 -90q0 -23 2 -35.5t13.5 -24.5t28 -16t55 -8.5t86 -5.5t127.5 -1q201 0 273.5 -53 t72.5 -158q0 -88 -53.5 -155.5t-137.5 -100.5q-86 -33 -147.5 -42t-167.5 -9q-41 0 -87 6.5t-104.5 22.5t-96.5 55t-38 96zM217 -197q0 -157 226 -157h3h3q274 0 274 161q0 68 -74 83.5t-350 15.5q-39 0 -60.5 -31t-21.5 -72zM256 580q0 -92 41 -169t127 -77q90 0 129 66.5 t39 162.5q0 102 -41 179t-135 77q-20 0 -42 -7t-51.5 -27.5t-48 -74t-18.5 -130.5z" />
<glyph unicode="h" d="M18 1372q0 10 3.5 16.5t16.5 11.5t27.5 9t48 13.5t66.5 21.5q53 14 90 30.5t50.5 26.5t24.5 17.5t22 7.5q12 0 13 -16v-6q0 -18 -4 -58q-5 -49 -5 -92v-625h4q117 150 282 150q150 0 230 -90.5t80 -266.5v-356q0 -47 19.5 -72.5t44 -31t44 -17.5t19.5 -35q0 -18 -19 -18 q-37 0 -111.5 4t-111.5 4q-23 0 -78 -4t-92 -4h-6h-9t-8.5 2t-7.5 6t-2 12q0 12 15.5 25.5t35 26t35 40t15.5 66.5v299q0 281 -201 281q-70 0 -139 -58q-4 -2 -9.5 -7t-8.5 -7t-7 -6t-5 -6t-3 -5.5t-3 -6.5t-2 -8t-1 -10v-11v-443q0 -61 40 -90t80.5 -41t40.5 -35 q0 -6 -2 -11t-6 -8t-9 -4t-14 -1h-16.5h-20.5h-24q-29 0 -90 4t-119 4q-33 0 -69.5 -4t-55.5 -4q-61 0 -61 22q0 16 17.5 28.5t37 19t37 23.5t17.5 48v1124q0 41 -21.5 60.5t-46.5 20.5t-46.5 8.5t-21.5 25.5z" />
<glyph unicode="i" horiz-adv-x="569" d="M45 754q0 6 1 10t4 8t5 6t8.5 5t11.5 5.5t14 4.5t16.5 4t19.5 5t22 5q76 16 126.5 38.5t68.5 36t27 13.5q16 0 20 -9t4 -32v-690q0 -45 23.5 -68.5t51.5 -28t51.5 -15.5t23.5 -34q0 -6 -3 -11t-9.5 -8t-12.5 -5t-16 -2h-15.5h-15.5h-12q-33 0 -97.5 4t-97.5 4 q-25 0 -75 -4t-76 -4h-13.5h-13.5h-10t-9.5 2t-6.5 5t-4 8t-1 13q0 20 30 28.5t60.5 25t30.5 57.5v524q0 43 -32.5 55.5t-65.5 16.5t-33 27zM152 1212.5q0 24.5 55 94t79.5 69.5t80 -69.5t55.5 -94t-55.5 -93t-80 -68.5t-79.5 68.5t-55 93z" />
<glyph unicode="j" horiz-adv-x="569" d="M-66 -309q0 135 43 135q12 0 59.5 -61.5t84.5 -61.5q23 0 36 15.5t17 52t5 52t1 60.5v772q0 43 -32.5 55.5t-65.5 16.5t-33 27q0 6 1 10t4 8t5 6t8.5 5t11.5 5.5t14 4.5t16.5 4t19.5 5t23 5q76 16 126 38.5t68.5 36t26.5 13.5q16 0 20 -9t4 -32v-762 q0 -219 -118.5 -363.5t-229.5 -144.5q-86 0 -104 37q-10 29 -11 70zM156 1212.5q0 24.5 55 94t79.5 69.5t80 -69.5t55.5 -94t-55.5 -93t-80 -68.5t-79.5 68.5t-55 93z" />
<glyph unicode="k" d="M27 1372q0 10 3 16.5t16 11.5t27.5 9t48.5 13.5t66 21.5q53 14 90 30.5t50.5 26.5t25 17.5t21.5 7.5q12 0 13 -16v-6q0 -18 -4 -58q-5 -49 -5 -92v-889l287 248q25 20 24 45q0 18 -49 32.5t-49 34.5q0 8 2 14.5t3 9.5t7 5t9 2h13.5h12.5q29 0 85 -4t85 -4q27 0 84 4t84 4 q47 0 47 -20q0 -29 -55 -43q-72 -18 -155 -67.5t-134 -93.5t-51 -59q0 -47 106.5 -198.5t202.5 -259.5q25 -29 65.5 -43.5t67.5 -22.5t27 -24q0 -12 -4 -19.5t-17.5 -10.5t-20.5 -3h-32q-16 0 -53 4t-56 4q-12 0 -50 -4t-64 -4q-10 0 -19.5 3t-46.5 41t-88 111l-192 281 l-76 -63v-185q0 -63 38 -94t75.5 -41t37.5 -26.5t-8 -21.5t-35 -5q-18 0 -107 4t-122 4q-25 0 -93.5 -4t-88.5 -4q-35 0 -35 20.5t18.5 27.5t42 10t42 36.5t18.5 99.5v1071q0 41 -21.5 60.5t-46 20.5t-46 8.5t-21.5 25.5z" />
<glyph unicode="l" horiz-adv-x="569" d="M33 1372q0 10 3 16.5t16.5 11.5t27.5 9t48 13.5t67 21.5q53 14 90 30.5t50 26.5t24.5 17.5t21.5 7.5q12 0 13 -16v-6q0 -18 -4 -58q-5 -49 -5 -92v-1174q0 -63 38 -94t76 -41t38 -26.5t-8.5 -21.5t-34.5 -5q-18 0 -107.5 4t-122.5 4q-25 0 -93.5 -4t-88.5 -4 q-35 0 -35 20.5t18.5 27.5t42 10t42 36.5t18.5 99.5v1071q0 41 -21.5 60.5t-46 20.5t-46 8.5t-21.5 25.5z" />
<glyph unicode="m" horiz-adv-x="1593" d="M27 754q0 6 1 10t4 8t5 6t8 5l11 5.5t14.5 4.5t16.5 4t19.5 5t22.5 5q76 16 126 38.5t68.5 36t26.5 13.5q16 0 20.5 -9t4.5 -32v-102q123 127 262 127q141 0 240 -142q106 141 276 142q164 0 223.5 -93.5t59.5 -275.5v-346q0 -41 20.5 -63.5t44 -28.5t44 -16.5 t20.5 -28.5q0 -16 -9.5 -24.5t-17.5 -9.5t-27 -1h-8q-20 0 -61 4t-62 4q-41 0 -112.5 -4t-83.5 -4q-27 0 -37 6t-10 25q0 14 41 40.5t41 57.5v368q0 61 -3.5 96.5t-17.5 81.5t-50 68.5t-93 22.5q-25 0 -45.5 -5t-34.5 -14.5t-26.5 -21.5t-19.5 -25.5t-12.5 -30t-7.5 -30 t-3 -28.5t-1 -24.5v-21.5v-10v-379q0 -59 33 -82t66.5 -31t33.5 -30q0 -33 -30 -33q-12 0 -67.5 4t-109.5 4q-68 0 -125 -4t-61 -4q-37 0 -37 26q0 18 19.5 29.5t40 34t20.5 70.5v362q0 137 -42 186.5t-120 49.5q-80 0 -115.5 -43t-35.5 -78v-465q0 -45 21.5 -68.5t47 -28 t47 -15.5t21.5 -34q0 -6 -2 -11t-7 -8t-10.5 -5t-13.5 -2h-13h-14.5h-11.5q-33 0 -97 4t-97 4q-27 0 -75 -4t-67 -4q-39 0 -43 6t-4 22t15.5 25.5t35 13.5t35 21.5t15.5 50.5v524q0 43 -33 55.5t-65.5 16.5t-32.5 27z" />
<glyph unicode="n" d="M31 754q0 6 1 10t4 8t5 6t8 5t11.5 5.5t14.5 4.5t16 4t19.5 5t22.5 5q76 16 126 38.5t68.5 36t26.5 13.5q16 0 20.5 -9t4.5 -32v-117h4q86 141 279 142q156 0 233.5 -108.5t77.5 -272.5v-332q0 -55 31.5 -82t63.5 -36t32 -25q0 -31 -47 -31q-35 0 -95.5 4t-78.5 4 q-29 0 -85.5 -4t-64.5 -4t-21.5 -1t-19.5 0t-13 3t-10 8t-3 16q0 12 47 49t47 80v349q0 249 -199 249h-2q-96 0 -136 -50t-40 -146v-379q0 -51 42 -76.5t83 -39t41 -31.5q0 -31 -64 -31q-2 0 -69.5 4t-130.5 4q-37 0 -107 -4t-98 -4q-23 0 -23 22q0 18 17.5 28.5t37 17 t37 39t17.5 89.5v467q0 43 -33 55.5t-65.5 16.5t-32.5 27z" />
<glyph unicode="o" horiz-adv-x="1024" d="M53 401q0 203 131 340.5t334 137.5q195 0 324 -119t129 -309q0 -209 -133 -341.5t-344 -132.5q-188 0 -314.5 119t-126.5 305zM270 518v-15q0 -52 12 -116q14 -74 44 -152.5t90.5 -132t140.5 -53.5q207 0 207 258q0 70 -13.5 150t-43 164t-88 138t-136.5 54 q-63 0 -106 -23.5t-64.5 -69.5t-31 -92t-11.5 -110z" />
<glyph unicode="p" horiz-adv-x="1024" d="M16 741q0 16 11.5 24.5t37 15.5t56.5 15.5t82 31t104 53.5q25 14 35 14q18 0 18 -55v-103q123 141 275 142q160 0 244 -111t84 -266q0 -135 -41 -249t-145.5 -195t-260.5 -81q-78 0 -156 39v-252q0 -49 27 -76.5t57.5 -31.5t57 -14.5t26.5 -30.5q0 -27 -43 -27 q-37 0 -90 4t-94 4q-76 0 -133 -4t-64 -4h-19t-13.5 3t-11.5 9.5t-3 18.5q0 14 13.5 23.5t30 12.5t29.5 18.5t13 41.5v897q0 51 -19.5 75t-44 23t-44 6t-19.5 29zM360 176q0 -6 23 -34.5t75 -59.5t113 -31q113 0 162 86t49 209q0 133 -70.5 261t-199.5 128h-2 q-85 0 -150 -73v-486z" />
<glyph unicode="q" horiz-adv-x="1024" d="M47 365q0 213 112.5 363.5t315.5 150.5q106 0 283 -80q10 14 26 37q29 41 38 50t24 9q8 0 13 -3t6 -8t2 -9.5t0 -12.5t-1 -12v-1139q0 -33 21.5 -47t44 -22.5t22.5 -26.5q0 -23 -11 -27t-38 -4q-6 0 -63.5 4t-132.5 4q-41 0 -94.5 -4t-90.5 -4q-43 0 -43 27q0 20 27 30.5 t57.5 14.5t57 31.5t26.5 76.5v345q-129 -129 -293 -132h-5q-148 0 -225 116q-79 118 -79 272zM227 489q0 -53 16.5 -114.5t46 -120.5t81 -98t112.5 -39h3q101 0 163 67v504q-106 117 -221 117q-68 0 -134.5 -70.5t-66.5 -245.5z" />
<glyph unicode="r" horiz-adv-x="796" d="M45 754q0 6 1 10t4 8t5 6t8.5 5t11.5 5.5t14 4.5t16.5 4t19.5 5t22 5q76 16 126.5 38.5t68.5 36t27 13.5q16 0 20 -9t4 -32v-158q154 182 215 183q39 0 100.5 -51.5t61.5 -79.5q0 -55 -39 -114t-67 -59q-14 0 -33 20.5t-50.5 41t-80.5 20.5q-107 0 -107 -172v-272 q0 -63 30 -99t65.5 -43.5t65.5 -16.5t30 -27q0 -35 -31 -35q-23 0 -110 4t-124 4q-53 0 -119.5 -4t-86.5 -4q-35 0 -35 20.5t15.5 30.5t33.5 16.5t33.5 35t15.5 79.5v481q0 43 -32.5 55.5t-65.5 16.5t-33 27z" />
<glyph unicode="s" horiz-adv-x="796" d="M84 63l6 211q2 35 37 35q10 0 34.5 -68.5t85 -138t159.5 -69.5q66 0 106.5 40t40.5 103q0 53 -63.5 94t-213.5 107q-14 6 -20 8q-88 39 -124 88t-36 139q0 137 95.5 202t238.5 65q37 0 123 -14.5t88 -37.5l14 -170q0 -20 -26 -20q-12 0 -30.5 27.5t-39 61.5t-70 61.5 t-114.5 27.5q-55 0 -92 -26.5t-37 -77.5q0 -25 8 -43.5t18.5 -29.5t37 -25.5t45 -21.5t64.5 -23.5t75 -28.5q111 -45 164 -104.5t53 -168.5q0 -150 -105.5 -219.5t-245.5 -69.5q-178 0 -256 46q-20 12 -20 40z" />
<glyph unicode="t" horiz-adv-x="681" d="M47 770q0 20 8 32.5t37 34t47 37.5q63 61 112.5 124t70 89.5t34.5 26.5q25 0 25 -22v-220q0 -20 45 -20h141q27 0 39 22.5t27 22.5q12 0 12 -14q0 -4 -27 -76q-4 -8 -10 -27.5t-12 -29t-18 -9.5h-197v-534q0 -59 19.5 -86t74.5 -27q61 0 111.5 24.5t52.5 24.5 q23 0 23 -30q0 -18 -35 -50t-103.5 -59t-146.5 -27q-35 0 -63.5 5.5t-49 13.5t-37 21.5t-27 24.5t-17.5 30.5t-11 31t-6 32t-2 27.5v25v19v532h-64q-53 0 -53 31z" />
<glyph unicode="u" d="M29 774q0 25 36.5 33.5t108.5 17.5t123 29q53 25 55 25q25 0 25 -45v-519q0 -104 38 -156.5t140 -52.5q68 0 124 36t56 98v436q0 43 -32.5 55t-65.5 16.5t-33 26.5q0 25 37 33.5t108.5 17.5t122.5 29q53 25 56 25q24 0 24 -45v-674q0 -43 24.5 -62.5t54.5 -19.5t54.5 -5 t24.5 -24q0 -10 -2 -16t-8 -9.5t-10.5 -4.5t-15.5 -2t-15 -1l-309 -39q-14 29 -15 138q-2 -2 -37.5 -34t-61.5 -49.5t-80 -36t-116 -18.5q-166 0 -223 93.5t-57 257.5v348q0 43 -33 55t-65.5 16.5t-32.5 26.5z" />
<glyph unicode="v" horiz-adv-x="1024" d="M25 829q0 18 20.5 22.5t69.5 4.5q16 0 59 -4t84 -4q27 0 90.5 4t83.5 4h14h17.5t14.5 -2t13.5 -8t4.5 -15q0 -18 -23.5 -29t-49.5 -16.5t-42 -21.5t-4 -45l176 -418l4 -12q6 -12 12 -21.5t15 -9.5q10 0 34 49l123 244q57 109 58 158q0 43 -33 59t-65.5 23.5t-32.5 30 t14 28.5t51 6q23 0 65 -4t62 -4q14 0 47 4t56 4q43 0 43 -25q0 -18 -37 -42.5t-54 -59.5l-374 -731q-2 -4 -6.5 -13.5t-6.5 -11.5t-5 -7t-7 -6t-10 -1q-16 0 -27 29q-2 4 -4 6l-338 706q-18 39 -40.5 62.5t-37 30t-24.5 14.5t-10 22z" />
<glyph unicode="w" horiz-adv-x="1478" d="M18 825q0 8 3.5 14.5t5.5 9.5t10 5t11 2h14.5h13.5t50 -4t112 -4q47 0 99 4t60 4h12.5h13.5t10 -1t10 -4t6.5 -9t3.5 -15q0 -23 -44 -39t-44 -47q0 -25 28 -104l121 -326q18 -55 31 -55q6 0 39 55l108 205q18 33 19 64q0 43 -27 101t-57 89q-6 6 -39 20.5t-33 34.5 q0 31 49 31q2 0 56.5 -4t115.5 -4q66 0 115 4t51 4q57 0 57 -29q0 -20 -51 -41.5t-51 -58.5q0 -13 18 -68l129 -329q2 -4 6.5 -15.5t7.5 -19.5t8 -14.5t9 -6.5q10 0 31 45l113 265q38 92 38 135q0 39 -18 55.5t-41.5 16.5t-42 9t-18.5 31q0 25 39 25q8 0 47 -4t80 -4 q31 0 64.5 4t35.5 4q41 0 41 -20.5t-30 -39t-42 -44.5l-325 -729q-4 -8 -9.5 -20.5t-7.5 -19t-7 -13.5t-10 -10t-14 -3q-6 0 -11 2t-10 8t-8 11.5t-8.5 15.5t-8.5 17t-7 19.5t-8 20.5l-162 383q-12 29 -22 29q-8 0 -23 -31l-213 -409q-4 -10 -10 -24.5t-10 -22t-10.5 -13.5 t-16.5 -6q-6 0 -11 2t-10.5 8t-8.5 11.5t-8 15.5t-8 17t-7 19.5t-8 20.5l-289 684q-12 29 -57.5 47.5t-45.5 42.5z" />
<glyph unicode="x" horiz-adv-x="1024" d="M14 829q0 27 43 27q2 0 66.5 -4t124.5 -4q43 0 126 4t111 4q37 0 37 -28.5t-52 -42t-52 -50.5q0 -33 53 -96l80 -96l166 170q18 18 18 41q0 27 -49 40t-49 31q0 6 1 11.5t3 8.5t6 5t7 3t9.5 2t9.5 1h11h10q16 0 55 -4t66 -4q18 0 64.5 4t64.5 4q41 0 47 -12q2 -6 2 -17 q0 -16 -11 -22t-31.5 -10t-61.5 -30t-86 -71l-207 -207l276 -354q29 -37 56.5 -56.5t43 -22.5t25 -10t9.5 -21q0 -31 -72 -31q-51 0 -113.5 4t-83.5 4q-45 0 -98 -4t-68 -4q-51 0 -59 10q-4 8 -4 21q0 29 46 44t46 50q0 6 -1 11t-4 12t-5 11.5t-8.5 13.5t-10.5 14t-15 19.5 t-17 22.5l-88 117l-123 -127q-68 -72 -68 -100q0 -20 53.5 -45t53.5 -43q0 -10 -8.5 -20.5t-26.5 -10.5q-23 0 -86.5 4t-86 4t-61.5 -4t-53 -4q-27 0 -27 28q0 12 7.5 18.5t20.5 12.5t44 29.5t68 62.5l248 252l-277 346q-18 23 -48 37.5t-48.5 24.5t-18.5 26z" />
<glyph unicode="y" horiz-adv-x="1024" d="M31 825q0 31 71 31q8 0 56.5 -4t103.5 -4q59 0 112.5 4t65.5 4h6q20 0 28.5 -1t16 -7t7.5 -19q0 -27 -56.5 -49t-56.5 -53q0 -23 37 -100l168 -338q25 -51 37 -51q10 0 28 51l101 258q32 82 32 128q0 56 -33.5 81.5t-68.5 36t-35 30.5q0 12 4 19.5t17.5 10.5t20.5 3h32 q6 0 43 -4t72 -4q33 0 68.5 4t43.5 4q51 0 52 -22q0 -18 -45.5 -48t-59.5 -65l-436 -1098q-14 -39 -33 -39h-96q-18 0 -19 17q0 18 19 47l127 202q47 76 47 107q0 23 -51 123l-318 627q-23 45 -65.5 72.5t-42.5 45.5z" />
<glyph unicode="z" horiz-adv-x="796" d="M41 12q0 8 55 82l410 541q10 14 10 22q0 10 -31 11h-249q-27 0 -62 -63.5t-63 -63.5q-23 0 -23 32q0 37 28.5 138.5t30.5 109.5q8 35 19 35q14 0 151.5 -4t186.5 -4q35 0 104.5 4t104.5 4q33 0 32 -12q0 -6 -34 -53l-408 -539q-29 -37 -29 -55q0 -20 45 -21h293 q37 0 70 30t45 30q20 0 21 -29q0 -55 -76 -142.5t-135 -87.5q-45 0 -149.5 11.5t-223.5 11.5q-31 0 -61.5 -4t-34.5 -4q-10 0 -18.5 7t-8.5 13z" />
<glyph unicode="{" horiz-adv-x="681" d="M10 625v4q113 29 150 80.5t37 162.5v336q0 197 84 257.5t309 60.5v-4q-106 -20 -150.5 -81t-44.5 -167v-359q0 -127 -39 -192.5t-161 -93.5v-4q123 -29 161.5 -94.5t38.5 -192.5v-358q0 -106 44 -167t151 -81v-4q-225 0 -309 60t-84 257v336q0 111 -37 163t-150 81z" />
<glyph unicode="|" horiz-adv-x="1241" d="M530 0v1526h179v-1526h-179z" />
<glyph unicode="}" horiz-adv-x="681" d="M92 -268q106 20 150.5 80.5t44.5 167.5v358q0 127 39 192.5t161 94.5v4q-123 29 -161.5 94t-38.5 192v359q0 106 -44 166.5t-151 81.5v4q225 0 309 -60.5t84 -257.5v-336q0 -111 37 -163t150 -80v-4q-113 -29 -150 -81t-37 -163v-336q0 -197 -84 -257t-309 -60v4z" />
<glyph unicode="~" horiz-adv-x="1241" d="M104 430q61 111 130 178.5t167 67.5q78 0 238 -70q160 -72 207 -71q102 -1 192 165l99 -112q-59 -104 -128 -168t-167 -64q-41 0 -88 14.5t-113 44t-72 31.5q-10 4 -38.5 16.5t-45 17.5t-41 11.5t-45.5 6.5q-35 0 -64.5 -14.5t-57 -50.5t-38 -52t-36.5 -64z" />
<glyph unicode="&#xa1;" horiz-adv-x="681" d="M145 868q0 39 73 112t112 73t111.5 -73t72.5 -112t-72.5 -111.5t-111.5 -72.5t-112 72.5t-73 111.5zM163 -390.5q-7 25.5 3 48.5l121 811q6 51 35 51q25 0 30 -65l94 -752q8 -23 5.5 -57.5t-33.5 -40.5q-92 -20 -203 -21q-45 0 -52 25.5z" />
<glyph unicode="&#xa2;" d="M176 403q0 43 8.5 92.5t41 121t86 127t158 95.5t241.5 40l90 264h80l-97 -287q49 -10 91.5 -42t42.5 -83q0 -31 -61.5 -79t-90.5 -48q-12 0 -17.5 6t-11.5 29t-12 39l-170 -535q41 -37 123 -37q63 0 119.5 28t92.5 55.5t48 27.5q25 0 25 -22q0 -61 -128 -139.5 t-266 -78.5q-61 0 -77 7l-99 -295h-84l107 319q-240 100 -240 395zM377 524q0 -78 27.5 -172t78.5 -145l189 553q-12 14 -17.5 19t-17.5 11.5t-26.5 7.5t-41.5 1q-193 0 -192 -275z" />
<glyph unicode="&#xa3;" d="M82 117q0 74 38 115.5t109 41.5q45 0 154 -34q16 27 16 120q1 152 -75 342h-136q-27 0 -40 1.5t-25 11.5t-12 30.5t12 31.5t25.5 12.5t39.5 1.5h107q-35 127 -35 225q0 180 102.5 312t272.5 132q145 0 234 -59.5t89 -124.5q0 -35 -54 -101.5t-85 -66.5q-25 0 -24 45 q0 123 -33 182.5t-144 59.5q-84 0 -134 -60.5t-50 -146.5q0 -47 9.5 -103.5t19.5 -94.5t30.5 -106.5t26.5 -92.5h119q27 0 40 -1.5t25.5 -12.5t12.5 -31.5t-12.5 -30.5t-25.5 -11.5t-40 -1.5h-94q23 -141 22 -190q0 -63 -21.5 -152.5t-53.5 -148.5q121 -35 223 -35 q125 0 180 46t84 169q0 4 2 15.5t4 16.5t5 15.5t7 14.5t11.5 8t17.5 4q31 0 31 -59.5t-18.5 -128t-55.5 -138t-109.5 -116t-166.5 -46.5q-72 0 -155 35t-134 88q-74 -123 -170 -123q-166 0 -166 140zM152 119q0 -31 18 -49.5t49 -18.5q53 0 89 35t36 64q0 16 -41 31.5 t-82 15.5q-69 0 -69 -78z" />
<glyph unicode="&#xa4;" d="M51 309l99 99q-86 133 -87 276q0 168 87 285l-99 96l135 139l101 -98q125 88 291 88q150 0 274 -88l98 98l135 -139l-98 -96q90 -117 90 -283q0 -164 -88 -278l98 -99l-135 -137l-98 98q-125 -90 -281 -90q-166 0 -288 90l-99 -98zM279 684q0 -121 87 -205t209 -84 q119 0 203 87t84 206q0 117 -83.5 204t-200.5 87q-125 0 -212 -85t-87 -210z" />
<glyph unicode="&#xa5;" d="M14 1360q0 10 3 16t14.5 8t16.5 2h24q10 0 63 -4t96 -4q102 0 177 4t77 4q29 0 29 -28q0 -20 -15.5 -28.5t-32.5 -9.5t-32.5 -14.5t-15.5 -43.5q0 -35 24 -93l158 -354q43 -94 55 -94q14 0 41 55l158 316q29 53 29 118q0 45 -26 71t-57.5 30t-57 14t-25.5 31q0 31 33 30 q6 0 52 -4t97 -4q78 0 138.5 4t62.5 4q27 0 26 -20q2 -25 -11 -36t-35.5 -19t-59.5 -54.5t-72 -126.5l-221 -491q-23 -47 -22 -123h174v-106h-174v-84h174v-107h-174q0 -72 32.5 -107.5t72.5 -37.5t72.5 -13.5t32.5 -42.5q0 -27 -38 -26h-7q-10 0 -97 4t-169 4 q-92 0 -172 -4t-96 -4q-41 0 -41 33q0 18 29.5 28t66.5 17.5t66.5 45.5t29.5 103h-176v107h176v84h-176v106h176q1 45 -28 102l-287 611q-20 45 -50 66.5t-52.5 22.5t-39 10t-16.5 32z" />
<glyph unicode="&#xa6;" horiz-adv-x="1241" d="M530 0v610h179v-610h-179zM530 915v611h179v-611h-179z" />
<glyph unicode="&#xa7;" horiz-adv-x="1024" d="M129 647q0 121 70.5 189.5t201.5 70.5v4q-6 6 -39.5 31t-41 32t-32 29.5t-31.5 38t-20.5 42t-17.5 55t-4 65.5q0 35 13.5 75t43 83t92 70.5t146.5 27.5q139 0 210 -67.5t71 -126.5q0 -129 -115 -129q-53 0 -84 34.5t-31 67.5q0 41 42 81t42 52q0 6 -13.5 17.5t-44 22.5 t-69.5 11q-63 0 -114.5 -38.5t-51.5 -92t23.5 -95.5t49.5 -64.5t90.5 -67.5t98.5 -74q139 -111 211 -207t72 -202q0 -131 -91 -193.5t-159 -58.5l-4 -4q172 -137 172 -285q0 -131 -96 -198.5t-234 -67.5q-102 0 -194 53t-92 149q0 127 127 127q39 0 73.5 -26.5t34.5 -77.5 q0 -27 -12 -48.5t-28.5 -31.5t-29 -20.5t-12.5 -18.5q0 -25 42 -46t99.5 -21t115 33.5t57.5 119.5q0 39 -18.5 72t-33 47t-55.5 49q-14 12 -85 64.5t-117 92.5t-105 101.5t-91 126t-32 127.5zM258 725q0 -82 150.5 -214t228.5 -132q57 0 93 43t36 86q0 80 -151.5 213 t-231.5 133q-47 0 -86 -33t-39 -96z" />
<glyph unicode="&#xa8;" horiz-adv-x="681" d="M59 1124.5q0 24.5 39 72.5t57.5 48t57.5 -48t39 -72.5t-39 -72.5t-57.5 -48t-57.5 48t-39 72.5zM430 1124.5q0 24.5 39 72.5t57.5 48t57.5 -48t39 -72.5t-39 -72.5t-57.5 -48t-57.5 48t-39 72.5z" />
<glyph unicode="&#xa9;" horiz-adv-x="1529" d="M49 709q0 303 209 518t504 215q297 0 507 -214t210 -519q0 -303 -210 -517.5t-507 -214.5q-295 0 -504 214.5t-209 517.5zM162 711q0 -254 177 -437.5t423 -183.5q248 0 426 183.5t178 437.5q0 256 -177 437t-427 181q-248 0 -424 -182t-176 -436zM383 698 q0 182 111.5 299t289.5 117q132 0 279 -59v-213h-64q-12 88 -62 143t-136 55q-119 0 -181.5 -91t-62.5 -216q0 -139 66.5 -248.5t197.5 -109.5q29 0 54.5 4t44 12t35 18.5t27.5 20.5t19.5 21.5t14.5 21.5t10 17.5t6 11.5l2 4l53 -23q-37 -90 -129 -140t-196 -50 q-170 0 -274.5 114.5t-104.5 290.5z" />
<glyph unicode="&#xaa;" horiz-adv-x="569" d="M12 1032q0 47 21.5 81t71 57.5t94.5 37t129 31.5q0 35 -1 51.5t-6.5 46t-16.5 44t-34.5 26.5t-56.5 12t-47 -10t-14 -41v-6q0 -20 -2.5 -31.5t-24 -24t-64.5 -12.5q-39 0 -38 25q0 72 77.5 106.5t165.5 34.5q203 0 203 -182v-234q0 -55 33 -55q2 0 14 4t14 4q31 0 31 -16 q0 -29 -39 -47.5t-73 -18.5q-43 0 -70 24t-33 52q-98 -76 -207 -76q-55 0 -91 33t-36 84zM43 725v70h451v-70h-451zM162 1065q0 -76 69 -76q43 0 70 15.5t27 29.5v135q0 27 -11 27q-51 0 -103 -36t-52 -95z" />
<glyph unicode="&#xab;" horiz-adv-x="1024" d="M152 446l356 304q8 8 22.5 8t14.5 -15q0 -25 -82 -139.5t-121 -157.5q39 -43 121 -157.5t82 -138.5q0 -14 -14.5 -14.5t-22.5 7.5zM483 446l357 304q8 8 22.5 8t14.5 -15q0 -25 -82 -139.5t-121 -157.5q39 -43 121 -157.5t82 -138.5q0 -14 -14.5 -14.5t-22.5 7.5z" />
<glyph unicode="&#xac;" horiz-adv-x="1241" d="M104 635v176h1033v-578h-176v402h-857z" />
<glyph unicode="&#xad;" horiz-adv-x="681" d="M86 285v135q0 24 74 51l360 127q41 14 53 14q20 0 21 -26v-135q0 -25 -74 -52l-360 -127q-41 -14 -54 -14q-20 0 -20 27z" />
<glyph unicode="&#xae;" horiz-adv-x="1529" d="M49 709q0 303 209 518t504 215q297 0 507 -214t210 -519q0 -303 -210 -517.5t-507 -214.5q-295 0 -504 214.5t-209 517.5zM162 711q0 -254 177 -437.5t423 -183.5q248 0 426 183.5t178 437.5q0 256 -177 437t-427 181q-248 0 -424 -182t-176 -436zM420 334v41q70 0 82 16 q10 12 10 39v586q0 25 -2 36t-17.5 17t-23.5 6h-47v43h436q59 0 121.5 -60.5t62.5 -129.5q0 -86 -57 -141.5t-143 -69.5v-4q37 -6 68.5 -37t46 -56.5t38.5 -74.5q4 -8 6 -13q6 -12 17.5 -36.5t16.5 -34.5t15.5 -27.5t17.5 -26t17.5 -17.5t21.5 -12t26 -3v-41h-142 q-41 0 -83 70.5t-77.5 155.5t-48.5 99q-10 10 -20 17.5t-26.5 9.5t-26 3t-31 0t-25.5 -1v-258q0 -23 2 -34t18.5 -16t24 -5h43.5v-41h-321zM653 741q49 0 77 2t63.5 10.5t55 26t34 50t14.5 79.5q0 164 -166 164q-55 0 -66.5 -13.5t-11.5 -66.5v-252z" />
<glyph unicode="&#xaf;" horiz-adv-x="681" d="M16 1067v121h650v-121h-650z" />
<glyph unicode="&#xb0;" horiz-adv-x="819" d="M102 1135q-2 127 89.5 217t218.5 90t217 -90t90 -217t-90 -217.5t-217 -90.5t-217.5 90.5t-90.5 217.5zM229 1135q0 -76 53.5 -128.5t127.5 -52.5q76 0 128 52.5t52 128.5q0 74 -53.5 127t-127 53t-127 -54.5t-53.5 -125.5z" />
<glyph unicode="&#xb1;" horiz-adv-x="1241" d="M104 0v176h1033v-176h-1033zM104 567v176h428v291h177v-291h428v-176h-428v-301h-177v301h-428z" />
<glyph unicode="&#xb2;" horiz-adv-x="681" d="M33 561q0 4 1 7t4 8.5t7 10.5t12.5 15t16.5 20.5t23.5 27t31.5 34.5t41 46t49 56q205 246 205 365q0 66 -42 102.5t-116 36.5q-66 0 -125 -40t-61 -40q-20 0 -21 17q0 18 33 54t102.5 70.5t149.5 34.5q94 0 157.5 -49t63.5 -133q0 -78 -88 -198.5t-177 -214t-89 -101.5 q0 -14 45 -14h193q45 0 78.5 14.5t49 32.5t28.5 32.5t24 14.5q18 0 18 -18q0 -33 -61 -127q-2 -2 -8.5 -15.5t-11.5 -21.5t-13 -18.5t-18.5 -15.5t-22.5 -5q-4 0 -99.5 3t-176.5 3q-49 0 -104.5 -3t-63.5 -3q-35 0 -35 12z" />
<glyph unicode="&#xb3;" horiz-adv-x="681" d="M47 633q0 20 21 20q4 0 59 -32.5t123 -32.5q102 0 166.5 64.5t64.5 158.5q0 150 -151 150q-23 0 -47 -3l-23 -4q-14 0 -14 17q0 8 46 33.5t92 71.5t46 105.5t-39 95.5t-102 36q-39 0 -80 -21.5t-67.5 -42t-28.5 -20.5q-18 0 -19 16q0 33 82 87t174 54q84 0 145.5 -38.5 t61.5 -112.5q0 -43 -30.5 -83t-60.5 -64.5t-30 -30.5l21 -4q20 -2 50 -12.5t59.5 -30t50 -60.5t20.5 -96q0 -131 -103.5 -222t-254.5 -91q-68 0 -124.5 17t-82 38.5t-25.5 36.5z" />
<glyph unicode="&#xb4;" horiz-adv-x="681" d="M182 985l250 258q84 86 107 96q14 6 30 7q37 0 59.5 -27t22.5 -45q0 -10 -2 -20.5t-5 -17.5t-10 -15.5t-11.5 -12.5t-14.5 -12t-14 -10t-17.5 -10.5t-15.5 -10.5l-285 -180h-94z" />
<glyph unicode="&#xb6;" horiz-adv-x="1286" d="M102 1083q0 66 13.5 120t37 90t55.5 63.5t68.5 43t78.5 26t84 12.5t83 4t78 0h39h530v-74h-131v-1425h131v-84h-743v84h162v776q-485 -41 -486 364zM414 1087q0 -188 43 -256.5t127 -50.5h4v588q-109 2 -141.5 -62.5t-32.5 -218.5zM731 -57h164v1425h-164v-1425z" />
<glyph unicode="&#xb7;" horiz-adv-x="569" d="M100 522q0 39 73 112t112 73t111.5 -73t72.5 -112t-72.5 -111.5t-111.5 -72.5t-112 72.5t-73 111.5z" />
<glyph unicode="&#xb8;" horiz-adv-x="681" d="M129 -406l27 66q59 -23 120 -22q123 0 123 81q0 80 -96 80q-33 0 -57 -10l-29 12l88 199h76l-55 -131q35 10 77 10q53 0 104.5 -36t51.5 -115q0 -168 -274 -168q-68 0 -156 34z" />
<glyph unicode="&#xb9;" horiz-adv-x="681" d="M121 1262q0 6 3 11t10 8t11.5 5t13.5 4t11 2q88 20 143.5 44t71.5 36l18 14q14 0 15 -12q0 -8 -5 -52t-5 -71v-567q0 -47 23.5 -69.5t53 -22.5t53 -3t23.5 -18q0 -16 -13 -19t-54 -3q-18 0 -78 3t-86 3q-29 0 -103.5 -3t-87.5 -3q-10 0 -10 18q0 14 21.5 19.5t47 6.5 t47 20.5t21.5 60.5v508q0 33 -8 50t-16.5 19t-20.5 2q-18 0 -49 -6t-33 -6q-18 0 -18 21z" />
<glyph unicode="&#xba;" horiz-adv-x="614" d="M10 1171q0 127 87 208t216 81q127 0 210 -71.5t83 -186.5q0 -127 -86 -207t-223 -80q-119 0 -203 70.5t-84 185.5zM70 725v70h450v-70h-450zM150 1243q0 -100 48 -192.5t140 -92.5q135 0 135 156q0 104 -45 205.5t-137 101.5q-141 0 -141 -178z" />
<glyph unicode="&#xbb;" horiz-adv-x="1024" d="M137 150q0 25 82 139t121 157q-39 43 -121 158t-82 139q0 14 14.5 14.5t22.5 -7.5l356 -304l-356 -303q-8 -8 -22.5 -8t-14.5 15zM469 150q0 25 82 139t121 157q-39 43 -121 158t-82 139q0 14 14.5 14.5t22.5 -7.5l356 -304l-356 -303q-8 -8 -22.5 -8t-14.5 15z" />
<glyph unicode="&#xbc;" horiz-adv-x="1708" d="M121 1262q0 6 3 11t10 8t11.5 5t13.5 4t11 2q88 20 143.5 44t71.5 36l18 14q14 0 15 -12q0 -8 -5 -52t-5 -71v-567q0 -47 23.5 -69.5t53 -22.5t53 -3t23.5 -18q0 -16 -13 -19t-54 -3q-18 0 -78 3t-86 3q-29 0 -103.5 -3t-87.5 -3q-10 0 -10 18q0 14 21.5 19.5t47 6.5 t47 20.5t21.5 60.5v508q0 33 -8 50t-16.5 19t-20.5 2q-18 0 -49 -6t-33 -6q-18 0 -18 21zM383 0l844 1386h119l-844 -1386h-119zM918 213q0 14 10 35.5t31.5 47.5t37 44t40 44t26.5 30l262 299q18 23 50 53.5t48 30.5q18 0 19 -54v-411q0 -31 18 -31h49q23 0 35 25.5 t25 25.5q14 0 14 -16q0 -154 -63 -154h-58q-12 0 -16 -5t-4 -21v-254q0 -12 -57.5 -22.5t-79.5 -10.5q-14 0 -15 8q0 10 6.5 26.5t6.5 41.5v200q0 31 -3.5 34t-31.5 3h-283h-8q-59 0 -59 31zM1046 304q3 -7 13 -7h182h8q41 0 47.5 3t6.5 26v14v238q-2 29 -9 26l-247 -291 q-4 -2 -1 -9z" />
<glyph unicode="&#xbd;" horiz-adv-x="1708" d="M121 1262q0 6 3 11t10 8t11.5 5t13.5 4t11 2q88 20 143.5 44t71.5 36l18 14q14 0 15 -12q0 -8 -5 -52t-5 -71v-567q0 -47 23.5 -69.5t53 -22.5t53 -3t23.5 -18q0 -16 -13 -19t-54 -3q-18 0 -78 3t-86 3q-29 0 -103.5 -3t-87.5 -3q-10 0 -10 18q0 14 21.5 19.5t47 6.5 t47 20.5t21.5 60.5v508q0 33 -8 50t-16.5 19t-20.5 2q-18 0 -49 -6t-33 -6q-18 0 -18 21zM358 0l844 1386h119l-844 -1386h-119zM973 6q0 4 1 7t4 8.5t7 10.5t12.5 15t16.5 20.5t23.5 27t31.5 34.5t41 46t49 56q205 246 205 365q0 66 -42 102.5t-116 36.5q-66 0 -125 -40 t-61 -40q-20 0 -21 17q0 18 33 54t102.5 70.5t149.5 34.5q94 0 157.5 -49t63.5 -133q0 -78 -89 -199.5t-177 -214t-88 -100.5q0 -14 45 -14h193q45 0 78.5 14.5t49 32.5t29 32.5t23.5 14.5q18 0 18 -18q0 -33 -61 -127q-2 -2 -8.5 -15.5t-11.5 -21.5t-13 -18.5t-18.5 -15.5 t-22.5 -5q-4 0 -99.5 3t-176.5 3q-49 0 -104.5 -3t-63.5 -3q-35 0 -35 12z" />
<glyph unicode="&#xbe;" horiz-adv-x="1708" d="M47 633q0 20 21 20q4 0 59 -32.5t123 -32.5q102 0 166.5 64.5t64.5 158.5q0 150 -151 150q-23 0 -47 -3l-23 -4q-14 0 -14 17q0 8 46 33.5t92 71.5t46 105.5t-39 95.5t-102 36q-39 0 -80 -21.5t-67.5 -42t-28.5 -20.5q-18 0 -19 16q0 33 82 87t174 54q84 0 145.5 -38.5 t61.5 -112.5q0 -43 -30.5 -83t-60.5 -64.5t-30 -30.5l21 -4q20 -2 50 -12.5t59.5 -30t50 -60.5t20.5 -96q0 -131 -103.5 -222t-254.5 -91q-68 0 -124.5 17t-82 38.5t-25.5 36.5zM383 0l844 1386h119l-844 -1386h-119zM918 213q0 14 10 35.5t31.5 47.5t37 44t40 44t26.5 30 l262 299q18 23 50 53.5t48 30.5q18 0 19 -54v-411q0 -31 18 -31h49q23 0 35 25.5t25 25.5q14 0 14 -16q0 -154 -63 -154h-58q-12 0 -16 -5t-4 -21v-254q0 -12 -57.5 -22.5t-79.5 -10.5q-14 0 -15 8q0 10 6.5 26.5t6.5 41.5v200q0 31 -3.5 34t-31.5 3h-283h-8q-59 0 -59 31z M1046 304q3 -7 13 -7h182h8q41 0 47.5 3t6.5 26v14v238q-2 29 -9 26l-247 -291q-4 -2 -1 -9z" />
<glyph unicode="&#xbf;" horiz-adv-x="796" d="M123 -178q0 63 50 144t109.5 146.5t109.5 153.5t50 166q0 10 -5 37t-5 39q0 20 21 20q31 0 52 -46t21 -107q0 -63 -78.5 -268t-78.5 -267q0 -59 34.5 -97t94.5 -38q57 0 111.5 49t64.5 49q23 0 22 -30q0 -51 -81.5 -120t-196.5 -69q-123 0 -209 60.5t-86 177.5zM287 868 q0 39 72.5 112t111.5 73t111.5 -73t72.5 -112t-72.5 -111.5t-111.5 -72.5t-111.5 72.5t-72.5 111.5z" />
<glyph unicode="&#xc0;" horiz-adv-x="1593" d="M27 14q0 16 17 27.5t41 22t52.5 36t44.5 64.5l555 1239q2 6 8.5 19.5t9.5 20.5t8 15t11 12.5t14 4.5q14 0 21.5 -10.5t28.5 -55.5l553 -1253q23 -49 55.5 -73t58 -24t44 -7t18.5 -29q0 -25 -12.5 -28t-61.5 -3q-29 0 -108.5 4t-155.5 4q-49 0 -124 -4t-101 -4h-11.5 h-11.5h-10t-9.5 1t-7.5 2t-6 3l-4 4t-3 6t-1 8q0 18 22.5 32.5t50 24t50 36t22.5 69.5q0 47 -36 137q-53 123 -72.5 152t-58.5 29h-404q-23 0 -38 -6.5t-39.5 -40t-47.5 -97.5q-43 -123 -43 -162q0 -49 35 -79.5t76 -40t75.5 -20.5t34.5 -30q0 -12 -6 -19t-19.5 -9t-24.5 -2 t-29.5 1t-26.5 1q-33 0 -96.5 4t-96.5 4q-31 0 -91 -4t-89 -4h-11h-13.5h-11.5t-10 2t-7 4t-6 6t-2 10zM484 1860q0 18 22.5 45t59.5 27q29 0 49 -16.5t88 -86.5l250 -258h-95l-284 180q-4 2 -14.5 8.5t-14.5 9.5t-13 9t-13.5 10t-11.5 10.5t-10 12.5l-7 14t-5 16.5t-1 18.5 zM510 625q-1 -19 65 -19h279q66 0 66 19q0 23 -23 75l-168 371l-8 12q-2 4 -8 4q-12 0 -23 -24l-158 -363q-23 -53 -22 -75z" />
<glyph unicode="&#xc1;" horiz-adv-x="1593" d="M27 14q0 16 17 27.5t41 22t52.5 36t44.5 64.5l555 1239q2 6 8.5 19.5t9.5 20.5t8 15t11 12.5t14 4.5q14 0 21.5 -10.5t28.5 -55.5l553 -1253q23 -49 55.5 -73t58 -24t44 -7t18.5 -29q0 -25 -12.5 -28t-61.5 -3q-29 0 -108.5 4t-155.5 4q-49 0 -124 -4t-101 -4h-11.5 h-11.5h-10t-9.5 1t-7.5 2t-6 3l-4 4t-3 6t-1 8q0 18 22.5 32.5t50 24t50 36t22.5 69.5q0 47 -36 137q-53 123 -72.5 152t-58.5 29h-404q-23 0 -38 -6.5t-39.5 -40t-47.5 -97.5q-43 -123 -43 -162q0 -49 35 -79.5t76 -40t75.5 -20.5t34.5 -30q0 -12 -6 -19t-19.5 -9t-24.5 -2 t-29.5 1t-26.5 1q-33 0 -96.5 4t-96.5 4q-31 0 -91 -4t-89 -4h-11h-13.5h-11.5t-10 2t-7 4t-6 6t-2 10zM510 625q-1 -19 65 -19h279q66 0 66 19q0 23 -23 75l-168 371l-8 12q-2 4 -8 4q-12 0 -23 -24l-158 -363q-23 -53 -22 -75zM639 1571l250 258q84 86 107 96q14 6 30 7 q37 0 59.5 -27t22.5 -45q0 -10 -2 -20.5t-5 -17.5t-10 -15.5t-11.5 -12.5t-14.5 -12t-14 -10t-17.5 -10.5t-15.5 -10.5l-285 -180h-94z" />
<glyph unicode="&#xc2;" horiz-adv-x="1593" d="M27 14q0 16 17 27.5t41 22t52.5 36t44.5 64.5l555 1239q2 6 8.5 19.5t9.5 20.5t8 15t11 12.5t14 4.5q14 0 21.5 -10.5t28.5 -55.5l553 -1253q23 -49 55.5 -73t58 -24t44 -7t18.5 -29q0 -25 -12.5 -28t-61.5 -3q-29 0 -108.5 4t-155.5 4q-49 0 -124 -4t-101 -4h-11.5 h-11.5h-10t-9.5 1t-7.5 2t-6 3l-4 4t-3 6t-1 8q0 18 22.5 32.5t50 24t50 36t22.5 69.5q0 47 -36 137q-53 123 -72.5 152t-58.5 29h-404q-23 0 -38 -6.5t-39.5 -40t-47.5 -97.5q-43 -123 -43 -162q0 -49 35 -79.5t76 -40t75.5 -20.5t34.5 -30q0 -12 -6 -19t-19.5 -9t-24.5 -2 t-29.5 1t-26.5 1q-33 0 -96.5 4t-96.5 4q-31 0 -91 -4t-89 -4h-11h-13.5h-11.5t-10 2t-7 4t-6 6t-2 10zM473 1571l254 346h142l254 -346h-88l-236 211l-238 -211h-88zM510 625q-1 -19 65 -19h279q66 0 66 19q0 23 -23 75l-168 371l-8 12q-2 4 -8 4q-12 0 -23 -24l-158 -363 q-23 -53 -22 -75z" />
<glyph unicode="&#xc3;" horiz-adv-x="1593" d="M27 14q0 16 17 27.5t41 22t52.5 36t44.5 64.5l555 1239q2 6 8.5 19.5t9.5 20.5t8 15t11 12.5t14 4.5q14 0 21.5 -10.5t28.5 -55.5l553 -1253q23 -49 55.5 -73t58 -24t44 -7t18.5 -29q0 -25 -12.5 -28t-61.5 -3q-29 0 -108.5 4t-155.5 4q-49 0 -124 -4t-101 -4h-11.5 h-11.5h-10t-9.5 1t-7.5 2t-6 3l-4 4t-3 6t-1 8q0 18 22.5 32.5t50 24t50 36t22.5 69.5q0 47 -36 137q-53 123 -72.5 152t-58.5 29h-404q-23 0 -38 -6.5t-39.5 -40t-47.5 -97.5q-43 -123 -43 -162q0 -49 35 -79.5t76 -40t75.5 -20.5t34.5 -30q0 -12 -6 -19t-19.5 -9t-24.5 -2 t-29.5 1t-26.5 1q-33 0 -96.5 4t-96.5 4q-31 0 -91 -4t-89 -4h-11h-13.5h-11.5t-10 2t-7 4t-6 6t-2 10zM463 1622q14 86 71.5 156t153.5 70q53 0 155.5 -49.5t147.5 -49.5q18 0 33.5 7.5t25 17.5t18.5 24.5t13 24.5l8 20l5 11h69q-55 -229 -229 -230q-66 0 -160 49 q-94 47 -133 48q-14 0 -27.5 -3.5t-22.5 -8.5t-17.5 -11t-14.5 -14t-10 -15.5t-8.5 -15.5t-5.5 -13t-3 -12l-2 -6h-67zM510 625q-1 -19 65 -19h279q66 0 66 19q0 23 -23 75l-168 371l-8 12q-2 4 -8 4q-12 0 -23 -24l-158 -363q-23 -53 -22 -75z" />
<glyph unicode="&#xc4;" horiz-adv-x="1593" d="M27 14q0 16 17 27.5t41 22t52.5 36t44.5 64.5l555 1239q2 6 8.5 19.5t9.5 20.5t8 15t11 12.5t14 4.5q14 0 21.5 -10.5t28.5 -55.5l553 -1253q23 -49 55.5 -73t58 -24t44 -7t18.5 -29q0 -25 -12.5 -28t-61.5 -3q-29 0 -108.5 4t-155.5 4q-49 0 -124 -4t-101 -4h-11.5 h-11.5h-10t-9.5 1t-7.5 2t-6 3l-4 4t-3 6t-1 8q0 18 22.5 32.5t50 24t50 36t22.5 69.5q0 47 -36 137q-53 123 -72.5 152t-58.5 29h-404q-23 0 -38 -6.5t-39.5 -40t-47.5 -97.5q-43 -123 -43 -162q0 -49 35 -79.5t76 -40t75.5 -20.5t34.5 -30q0 -12 -6 -19t-19.5 -9t-24.5 -2 t-29.5 1t-26.5 1q-33 0 -96.5 4t-96.5 4q-31 0 -91 -4t-89 -4h-11h-13.5h-11.5t-10 2t-7 4t-6 6t-2 10zM510 625q-1 -19 65 -19h279q66 0 66 19q0 23 -23 75l-168 371l-8 12q-2 4 -8 4q-12 0 -23 -24l-158 -363q-23 -53 -22 -75zM516 1710.5q0 24.5 39 72.5t57.5 48 t57.5 -48t39 -72.5t-39 -72.5t-57.5 -48t-57.5 48t-39 72.5zM887 1710.5q0 24.5 39 72.5t57.5 48t57.5 -48t39 -72.5t-39 -72.5t-57.5 -48t-57.5 48t-39 72.5z" />
<glyph unicode="&#xc5;" horiz-adv-x="1593" d="M27 14q0 16 17 27.5t41 22t52.5 36t44.5 64.5l555 1239q2 6 8.5 19.5t9.5 20.5t8 15t11 12.5t14 4.5q14 0 21.5 -10.5t28.5 -55.5l553 -1253q23 -49 55.5 -73t58 -24t44 -7t18.5 -29q0 -25 -12.5 -28t-61.5 -3q-29 0 -108.5 4t-155.5 4q-49 0 -124 -4t-101 -4h-11.5 h-11.5h-10t-9.5 1t-7.5 2t-6 3l-4 4t-3 6t-1 8q0 18 22.5 32.5t50 24t50 36t22.5 69.5q0 47 -36 137q-53 123 -72.5 152t-58.5 29h-404q-23 0 -38 -6.5t-39.5 -40t-47.5 -97.5q-43 -123 -43 -162q0 -49 35 -79.5t76 -40t75.5 -20.5t34.5 -30q0 -12 -6 -19t-19.5 -9t-24.5 -2 t-29.5 1t-26.5 1q-33 0 -96.5 4t-96.5 4q-31 0 -91 -4t-89 -4h-11h-13.5h-11.5t-10 2t-7 4t-6 6t-2 10zM510 625q-1 -19 65 -19h279q66 0 66 19q0 23 -23 75l-168 371l-8 12q-2 4 -8 4q-12 0 -23 -24l-158 -363q-23 -53 -22 -75zM573 1729q0 86 61.5 146.5t147.5 60.5 t147.5 -60.5t61.5 -146.5t-61.5 -147.5t-147.5 -61.5t-147.5 61.5t-61.5 147.5zM665 1729q0 -47 35 -82t82 -35t82 35t35 82t-35 80.5t-82 33.5t-82 -33.5t-35 -80.5z" />
<glyph unicode="&#xc6;" horiz-adv-x="2048" d="M4 20q0 16 11.5 24.5t29.5 15t47 31t55 65.5l695 1071q63 96 63 108q0 18 -65.5 33.5t-65.5 44.5t72 29q10 0 67.5 -2t187.5 -4t314 -2q68 0 220.5 4t246.5 4q18 0 29.5 -12.5t11.5 -26.5l8 -203q8 -94 -35 -94q-23 0 -32 17.5t-9 44t-13 58t-36.5 58.5t-86 44.5 t-154.5 17.5h-107t-69.5 -6.5t-46 -12.5t-20.5 -25.5t-12 -39t-1 -60.5v-287q0 -70 12 -86t76 -16h129q59 0 102 29.5t60.5 64.5t33 64.5t27.5 29.5h9t9.5 -2t10.5 -7l6 -15t4 -27l14 -364q6 -20 1 -60.5t-36 -40.5q-20 0 -32.5 34t-21.5 75t-52 74.5t-115 33.5h-151 q-33 0 -50.5 -3t-25.5 -20t-9 -32.5t-1 -60.5v-27v-262v-18q0 -55 2 -80t14 -53.5t42 -39t81 -10.5q119 0 211 19.5t142 50.5t86 64.5t52.5 64.5t33 50.5t32.5 19.5q23 0 23 -46q0 -125 -84 -226t-205 -101q-182 0 -347 4t-190 4q-27 0 -112.5 -4t-149.5 -4q-39 0 -39 22 q0 25 16.5 36t39 16.5t45 17.5t39 53t16.5 111v248h-482q-49 0 -67.5 -8.5t-42.5 -45.5q-127 -197 -135 -229q-4 -12 -4 -25q0 -49 33.5 -76.5t75.5 -33.5t76 -18.5t34 -32.5q0 -23 -11.5 -29t-41.5 -6q-59 0 -140.5 4t-113.5 4q-49 0 -110.5 -4t-76.5 -4q-47 0 -47 28z M584 625q-8 -14 16 -19h31h426v662q0 41 -15 41q-4 0 -8 -1t-8 -5.5t-7 -7.5t-7 -9t-6 -10t-7.5 -12.5t-7.5 -12.5z" />
<glyph unicode="&#xc7;" horiz-adv-x="1478" d="M51 664q0 106 25.5 214.5t83 214t139.5 186.5t206 131t273 50q109 0 211.5 -31.5t169 -62.5t87 -31t39 34t30.5 34q24 0 24 -12l37 -390q6 -68 -24 -67q-10 0 -17.5 4t-14.5 13.5t-11 15.5t-10.5 19t-8.5 18q-84 162 -219 268t-301 106q-213 0 -340 -170t-127 -391 q0 -90 19.5 -183t63.5 -185.5t106.5 -164t157.5 -116.5t208 -45q109 0 205 42t149.5 92t97.5 92t58 42q8 0 18.5 -7t10.5 -15q0 -35 -43 -96.5t-119 -129t-208 -117t-284 -49.5q-170 0 -301 57.5t-202.5 137.5t-116.5 181.5t-58.5 175t-13.5 135.5zM528 -406l27 66 q59 -23 120 -22q123 0 123 81q0 80 -96 80q-33 0 -57 -10l-29 12l88 199h76l-55 -131q35 10 77 10q53 0 104.5 -36t51.5 -115q0 -168 -274 -168q-68 0 -156 34z" />
<glyph unicode="&#xc8;" horiz-adv-x="1251" d="M0 1407q0 35 45 35q14 0 187.5 -4t357.5 -4q68 0 220.5 4t246.5 4q18 0 29.5 -12.5t11.5 -26.5l8 -203q8 -94 -35 -94q-23 0 -32 17.5t-9 44t-13 58t-37 58.5t-86.5 44.5t-154.5 17.5h-106.5t-69.5 -6.5t-46 -12.5t-20.5 -25.5t-12.5 -39t-1 -60.5v-287q0 -70 12.5 -86 t75.5 -16h129q78 0 124 47t65.5 94t34.5 47h9t9 -2t10 -7t6.5 -15t4.5 -27l14 -364q6 -20 1 -60.5t-36 -40.5q-20 0 -32.5 34t-21.5 75t-52 74.5t-115 33.5h-152q-33 0 -50 -3t-25.5 -20t-9.5 -32.5t-1 -60.5v-27v-262v-18q0 -55 2 -80t14.5 -53.5t42 -39t81.5 -10.5 q119 0 211 19.5t142 50.5t86 64.5t52 64.5t32.5 50.5t33.5 19.5q23 0 22 -46q0 -125 -84 -226t-205 -101q-182 0 -347 4t-189.5 4t-111.5 -4t-150 -4q-39 0 -39 22q0 25 16.5 36t39 16.5t45 17.5t38.5 53t16 111v958q0 63 -35.5 97t-79.5 41.5t-80 21.5t-36 41zM312 1860 q0 18 22.5 45t59.5 27q29 0 49 -16.5t88 -86.5l250 -258h-95l-284 180q-4 2 -14.5 8.5t-14.5 9.5t-13 9t-13.5 10t-11.5 10.5t-10 12.5l-7 14t-5 16.5t-1 18.5z" />
<glyph unicode="&#xc9;" horiz-adv-x="1251" d="M0 1407q0 35 45 35q14 0 187.5 -4t357.5 -4q68 0 220.5 4t246.5 4q18 0 29.5 -12.5t11.5 -26.5l8 -203q8 -94 -35 -94q-23 0 -32 17.5t-9 44t-13 58t-37 58.5t-86.5 44.5t-154.5 17.5h-106.5t-69.5 -6.5t-46 -12.5t-20.5 -25.5t-12.5 -39t-1 -60.5v-287q0 -70 12.5 -86 t75.5 -16h129q78 0 124 47t65.5 94t34.5 47h9t9 -2t10 -7t6.5 -15t4.5 -27l14 -364q6 -20 1 -60.5t-36 -40.5q-20 0 -32.5 34t-21.5 75t-52 74.5t-115 33.5h-152q-33 0 -50 -3t-25.5 -20t-9.5 -32.5t-1 -60.5v-27v-262v-18q0 -55 2 -80t14.5 -53.5t42 -39t81.5 -10.5 q119 0 211 19.5t142 50.5t86 64.5t52 64.5t32.5 50.5t33.5 19.5q23 0 22 -46q0 -125 -84 -226t-205 -101q-182 0 -347 4t-189.5 4t-111.5 -4t-150 -4q-39 0 -39 22q0 25 16.5 36t39 16.5t45 17.5t38.5 53t16 111v958q0 63 -35.5 97t-79.5 41.5t-80 21.5t-36 41zM467 1571 l250 258q84 86 107 96q14 6 30 7q37 0 59.5 -27t22.5 -45q0 -10 -2 -20.5t-5 -17.5t-10 -15.5t-11.5 -12.5t-14.5 -12t-14 -10t-17.5 -10.5t-15.5 -10.5l-285 -180h-94z" />
<glyph unicode="&#xca;" horiz-adv-x="1251" d="M0 1407q0 35 45 35q14 0 187.5 -4t357.5 -4q68 0 220.5 4t246.5 4q18 0 29.5 -12.5t11.5 -26.5l8 -203q8 -94 -35 -94q-23 0 -32 17.5t-9 44t-13 58t-37 58.5t-86.5 44.5t-154.5 17.5h-106.5t-69.5 -6.5t-46 -12.5t-20.5 -25.5t-12.5 -39t-1 -60.5v-287q0 -70 12.5 -86 t75.5 -16h129q78 0 124 47t65.5 94t34.5 47h9t9 -2t10 -7t6.5 -15t4.5 -27l14 -364q6 -20 1 -60.5t-36 -40.5q-20 0 -32.5 34t-21.5 75t-52 74.5t-115 33.5h-152q-33 0 -50 -3t-25.5 -20t-9.5 -32.5t-1 -60.5v-27v-262v-18q0 -55 2 -80t14.5 -53.5t42 -39t81.5 -10.5 q119 0 211 19.5t142 50.5t86 64.5t52 64.5t32.5 50.5t33.5 19.5q23 0 22 -46q0 -125 -84 -226t-205 -101q-182 0 -347 4t-189.5 4t-111.5 -4t-150 -4q-39 0 -39 22q0 25 16.5 36t39 16.5t45 17.5t38.5 53t16 111v958q0 63 -35.5 97t-79.5 41.5t-80 21.5t-36 41zM301 1571 l254 346h142l254 -346h-88l-236 211l-238 -211h-88z" />
<glyph unicode="&#xcb;" horiz-adv-x="1251" d="M0 1407q0 35 45 35q14 0 187.5 -4t357.5 -4q68 0 220.5 4t246.5 4q18 0 29.5 -12.5t11.5 -26.5l8 -203q8 -94 -35 -94q-23 0 -32 17.5t-9 44t-13 58t-37 58.5t-86.5 44.5t-154.5 17.5h-106.5t-69.5 -6.5t-46 -12.5t-20.5 -25.5t-12.5 -39t-1 -60.5v-287q0 -70 12.5 -86 t75.5 -16h129q78 0 124 47t65.5 94t34.5 47h9t9 -2t10 -7t6.5 -15t4.5 -27l14 -364q6 -20 1 -60.5t-36 -40.5q-20 0 -32.5 34t-21.5 75t-52 74.5t-115 33.5h-152q-33 0 -50 -3t-25.5 -20t-9.5 -32.5t-1 -60.5v-27v-262v-18q0 -55 2 -80t14.5 -53.5t42 -39t81.5 -10.5 q119 0 211 19.5t142 50.5t86 64.5t52 64.5t32.5 50.5t33.5 19.5q23 0 22 -46q0 -125 -84 -226t-205 -101q-182 0 -347 4t-189.5 4t-111.5 -4t-150 -4q-39 0 -39 22q0 25 16.5 36t39 16.5t45 17.5t38.5 53t16 111v958q0 63 -35.5 97t-79.5 41.5t-80 21.5t-36 41zM344 1710.5 q0 24.5 39 72.5t57.5 48t57.5 -48t39 -72.5t-39 -72.5t-57.5 -48t-57.5 48t-39 72.5zM715 1710.5q0 24.5 39 72.5t57.5 48t57.5 -48t39 -72.5t-39 -72.5t-57.5 -48t-57.5 48t-39 72.5z" />
<glyph unicode="&#xcc;" horiz-adv-x="796" d="M41 1413q0 29 70 29q41 0 118.5 -4t112.5 -4q31 0 116 4t148 4q47 0 59.5 -5t12.5 -24q0 -23 -23.5 -33t-53.5 -15t-53.5 -40.5t-23.5 -101.5v-977q0 -86 36 -131t79 -51.5t79 -13.5t36 -27q0 -31 -66 -31q-27 0 -124 4t-187 4q-49 0 -128 -4t-101.5 -4t-22.5 24 q0 23 23.5 37.5t50 23.5t50 48t23.5 104v983q0 63 -35.5 99.5t-79.5 44.5t-80 21.5t-36 35.5zM84 1860q0 18 22.5 45t59.5 27q29 0 49 -16.5t88 -86.5l250 -258h-95l-284 180q-4 2 -14.5 8.5t-14.5 9.5t-13 9t-13.5 10t-11.5 10.5t-10 12.5l-7 14t-5 16.5t-1 18.5z" />
<glyph unicode="&#xcd;" horiz-adv-x="796" d="M41 1413q0 29 70 29q41 0 118.5 -4t112.5 -4q31 0 116 4t148 4q47 0 59.5 -5t12.5 -24q0 -23 -23.5 -33t-53.5 -15t-53.5 -40.5t-23.5 -101.5v-977q0 -86 36 -131t79 -51.5t79 -13.5t36 -27q0 -31 -66 -31q-27 0 -124 4t-187 4q-49 0 -128 -4t-101.5 -4t-22.5 24 q0 23 23.5 37.5t50 23.5t50 48t23.5 104v983q0 63 -35.5 99.5t-79.5 44.5t-80 21.5t-36 35.5zM239 1571l250 258q84 86 107 96q14 6 30 7q37 0 59.5 -27t22.5 -45q0 -10 -2 -20.5t-5 -17.5t-10 -15.5t-11.5 -12.5t-14.5 -12t-14 -10t-17.5 -10.5t-15.5 -10.5l-285 -180h-94z " />
<glyph unicode="&#xce;" horiz-adv-x="796" d="M41 1413q0 29 70 29q41 0 118.5 -4t112.5 -4q31 0 116 4t148 4q47 0 59.5 -5t12.5 -24q0 -23 -23.5 -33t-53.5 -15t-53.5 -40.5t-23.5 -101.5v-977q0 -86 36 -131t79 -51.5t79 -13.5t36 -27q0 -31 -66 -31q-27 0 -124 4t-187 4q-49 0 -128 -4t-101.5 -4t-22.5 24 q0 23 23.5 37.5t50 23.5t50 48t23.5 104v983q0 63 -35.5 99.5t-79.5 44.5t-80 21.5t-36 35.5zM73 1571l254 346h142l254 -346h-88l-236 211l-238 -211h-88z" />
<glyph unicode="&#xcf;" horiz-adv-x="796" d="M41 1413q0 29 70 29q41 0 118.5 -4t112.5 -4q31 0 116 4t148 4q47 0 59.5 -5t12.5 -24q0 -23 -23.5 -33t-53.5 -15t-53.5 -40.5t-23.5 -101.5v-977q0 -86 36 -131t79 -51.5t79 -13.5t36 -27q0 -31 -66 -31q-27 0 -124 4t-187 4q-49 0 -128 -4t-101.5 -4t-22.5 24 q0 23 23.5 37.5t50 23.5t50 48t23.5 104v983q0 63 -35.5 99.5t-79.5 44.5t-80 21.5t-36 35.5zM116 1710.5q0 24.5 39 72.5t57.5 48t57.5 -48t39 -72.5t-39 -72.5t-57.5 -48t-57.5 48t-39 72.5zM487 1710.5q0 24.5 39 72.5t57.5 48t57.5 -48t39 -72.5t-39 -72.5t-57.5 -48 t-57.5 48t-39 72.5z" />
<glyph unicode="&#xd0;" horiz-adv-x="1593" d="M10 1409q0 14 12.5 23.5t24.5 9.5t42 -2t91.5 -4t149.5 -2q53 0 158.5 4t158.5 4q870 0 871 -674q0 -168 -57.5 -307t-144.5 -223t-192.5 -142.5t-196.5 -81t-163 -22.5q-141 0 -276.5 4t-151.5 4q-33 0 -95.5 -4t-93.5 -4h-15h-16h-15.5t-13.5 2t-11 5t-8 8t-2 13 q0 25 25.5 36.5t56 16.5t56 36.5t25.5 95.5v516h-178v104h178v367q0 57 -22.5 94t-55 51.5t-64.5 22.5t-54.5 18.5t-22.5 30.5zM481 219q0 -150 232 -149q248 0 397.5 161.5t149.5 470.5q0 68 -13.5 145t-55.5 172t-106.5 169t-178 125t-259.5 51q-109 0 -137.5 -39 t-28.5 -154v-346h422v-104h-422v-502z" />
<glyph unicode="&#xd1;" horiz-adv-x="1705" d="M12 1407q0 35 35 35q18 0 57 -4t58 -4q20 0 86.5 4t128.5 4q25 0 36 -3t14 -8.5t10 -17.5t18 -24l823 -904q49 -53 63 -53q16 0 17 76v682q0 63 -39 102t-86 51.5t-86 27.5t-39 36q0 35 33 35q2 0 75.5 -4t157.5 -4q57 0 107.5 2t79 4t32.5 2q39 0 39 -27 q0 -18 -27.5 -31.5t-59.5 -23.5t-59.5 -54t-27.5 -118v-1149q0 -27 -1 -37t-6 -17.5t-17 -7.5q-29 0 -54 29l-985 1065q-23 27 -37 27q-16 0 -16 -33v-696q0 -92 19.5 -155.5t48 -89.5t63.5 -41t63.5 -18.5t48 -13.5t19.5 -33q0 -27 -78 -26q-53 0 -131 4t-110 4 q-35 0 -92.5 -4t-83.5 -4q-4 0 -15.5 -1t-17.5 0t-14.5 2t-12.5 7t-4 16q0 27 30.5 46.5t67.5 34t68 58t31 115.5v779q0 111 -23.5 178t-57.5 90.5t-68 33t-57.5 20.5t-23.5 36zM502 1622q14 86 71.5 156t153.5 70q53 0 155.5 -49.5t147.5 -49.5q18 0 33.5 7.5t25 17.5 t18.5 24.5t13 24.5l8 20l5 11h69q-55 -229 -229 -230q-66 0 -160 49q-94 47 -133 48q-14 0 -27.5 -3.5t-22.5 -8.5t-17.5 -11t-14.5 -14t-10 -15.5t-8.5 -15.5t-5.5 -13t-3 -12l-2 -6h-67z" />
<glyph unicode="&#xd2;" horiz-adv-x="1593" d="M51 670q0 346 202 567t560 223q305 4 505 -185.5t200 -508.5q0 -98 -17.5 -193.5t-70 -207t-134.5 -194.5t-226 -138.5t-331 -55.5q-309 0 -498.5 191t-189.5 502zM303 786q0 -94 15.5 -190t53.5 -193.5t93 -172t142 -121t192 -43.5q248 4 357.5 173t109.5 447 q0 324 -151.5 507t-362.5 179q-125 -2 -215.5 -51t-139.5 -134t-71.5 -183.5t-22.5 -217.5zM484 1860q0 18 22.5 45t59.5 27q29 0 49 -16.5t88 -86.5l250 -258h-95l-284 180q-4 2 -14.5 8.5t-14.5 9.5t-13 9t-13.5 10t-11.5 10.5t-10 12.5l-7 14t-5 16.5t-1 18.5z" />
<glyph unicode="&#xd3;" horiz-adv-x="1593" d="M51 670q0 346 202 567t560 223q305 4 505 -185.5t200 -508.5q0 -98 -17.5 -193.5t-70 -207t-134.5 -194.5t-226 -138.5t-331 -55.5q-309 0 -498.5 191t-189.5 502zM303 786q0 -94 15.5 -190t53.5 -193.5t93 -172t142 -121t192 -43.5q248 4 357.5 173t109.5 447 q0 324 -151.5 507t-362.5 179q-125 -2 -215.5 -51t-139.5 -134t-71.5 -183.5t-22.5 -217.5zM639 1571l250 258q84 86 107 96q14 6 30 7q37 0 59.5 -27t22.5 -45q0 -10 -2 -20.5t-5 -17.5t-10 -15.5t-11.5 -12.5t-14.5 -12t-14 -10t-17.5 -10.5t-15.5 -10.5l-285 -180h-94z " />
<glyph unicode="&#xd4;" horiz-adv-x="1593" d="M51 670q0 346 202 567t560 223q305 4 505 -185.5t200 -508.5q0 -98 -17.5 -193.5t-70 -207t-134.5 -194.5t-226 -138.5t-331 -55.5q-309 0 -498.5 191t-189.5 502zM303 786q0 -94 15.5 -190t53.5 -193.5t93 -172t142 -121t192 -43.5q248 4 357.5 173t109.5 447 q0 324 -151.5 507t-362.5 179q-125 -2 -215.5 -51t-139.5 -134t-71.5 -183.5t-22.5 -217.5zM473 1571l254 346h142l254 -346h-88l-236 211l-238 -211h-88z" />
<glyph unicode="&#xd5;" horiz-adv-x="1593" d="M51 670q0 346 202 567t560 223q305 4 505 -185.5t200 -508.5q0 -98 -17.5 -193.5t-70 -207t-134.5 -194.5t-226 -138.5t-331 -55.5q-309 0 -498.5 191t-189.5 502zM303 786q0 -94 15.5 -190t53.5 -193.5t93 -172t142 -121t192 -43.5q248 4 357.5 173t109.5 447 q0 324 -151.5 507t-362.5 179q-125 -2 -215.5 -51t-139.5 -134t-71.5 -183.5t-22.5 -217.5zM447 1622q14 86 71.5 156t153.5 70q53 0 155.5 -49.5t147.5 -49.5q18 0 33.5 7.5t25 17.5t18.5 24.5t13 24.5l8 20l5 11h69q-55 -229 -229 -230q-66 0 -160 49q-94 47 -133 48 q-14 0 -27.5 -3.5t-22.5 -8.5t-17.5 -11t-14.5 -14t-10 -15.5t-8.5 -15.5t-5.5 -13t-3 -12l-2 -6h-67z" />
<glyph unicode="&#xd6;" horiz-adv-x="1593" d="M51 670q0 346 202 567t560 223q305 4 505 -185.5t200 -508.5q0 -98 -17.5 -193.5t-70 -207t-134.5 -194.5t-226 -138.5t-331 -55.5q-309 0 -498.5 191t-189.5 502zM303 786q0 -94 15.5 -190t53.5 -193.5t93 -172t142 -121t192 -43.5q248 4 357.5 173t109.5 447 q0 324 -151.5 507t-362.5 179q-125 -2 -215.5 -51t-139.5 -134t-71.5 -183.5t-22.5 -217.5zM516 1710.5q0 24.5 39 72.5t57.5 48t57.5 -48t39 -72.5t-39 -72.5t-57.5 -48t-57.5 48t-39 72.5zM887 1710.5q0 24.5 39 72.5t57.5 48t57.5 -48t39 -72.5t-39 -72.5t-57.5 -48 t-57.5 48t-39 72.5z" />
<glyph unicode="&#xd7;" horiz-adv-x="1241" d="M104 131l392 391l-392 391l125 125l392 -391l391 391l125 -125l-392 -391l392 -391l-125 -125l-391 391l-392 -391z" />
<glyph unicode="&#xd8;" horiz-adv-x="1593" d="M51 670q0 346 202 567t560 223q74 0 164 -14l86 254h102l-94 -277q203 -66 325 -241.5t122 -415.5q0 -98 -17.5 -193.5t-70 -207t-134.5 -194.5t-226 -138.5t-331 -55.5q-86 0 -147 13l-78 -230h-104l86 254q-219 74 -332 248t-113 408zM303 786q0 -176 59.5 -354 t178.5 -280l397 1179q-70 41 -186 41q-125 -2 -215.5 -51t-139.5 -134t-71.5 -183.5t-22.5 -217.5zM627 100q66 -35 172 -34q248 4 357.5 173t109.5 447q0 401 -242 594z" />
<glyph unicode="&#xd9;" horiz-adv-x="1705" d="M14 1409q0 33 43 33q4 0 113 -4t170 -4t169.5 4t119.5 4q23 0 22 -29q0 -18 -17.5 -24.5t-43 -14.5t-51 -27.5t-43 -78t-17.5 -152.5v-444q0 -127 19.5 -223.5t66.5 -179.5t138.5 -127t224.5 -44q119 0 205 38t134 96.5t76.5 151.5t37 180t8.5 204v406q0 66 -26 108.5 t-63.5 59t-74.5 26.5t-62.5 20.5t-25.5 30.5q0 10 3 15.5t11 7.5t14 2t17.5 -1t15.5 -1q119 -8 172 -8q29 0 234 8q37 0 36 -27q0 -14 -14 -20t-35.5 -12.5t-43 -20.5t-36 -54t-14.5 -106v-463q0 -135 -16.5 -240.5t-61.5 -205.5t-119.5 -168t-197.5 -108t-287 -40 q-588 0 -588 576v668q0 59 -33.5 92t-72.5 39t-73 19t-34 38zM580 1860q0 18 22.5 45t59.5 27q29 0 49 -16.5t88 -86.5l250 -258h-95l-284 180q-4 2 -14.5 8.5t-14.5 9.5t-13 9t-13.5 10t-11.5 10.5t-10 12.5l-7 14t-5 16.5t-1 18.5z" />
<glyph unicode="&#xda;" horiz-adv-x="1705" d="M14 1409q0 33 43 33q4 0 113 -4t170 -4t169.5 4t119.5 4q23 0 22 -29q0 -18 -17.5 -24.5t-43 -14.5t-51 -27.5t-43 -78t-17.5 -152.5v-444q0 -127 19.5 -223.5t66.5 -179.5t138.5 -127t224.5 -44q119 0 205 38t134 96.5t76.5 151.5t37 180t8.5 204v406q0 66 -26 108.5 t-63.5 59t-74.5 26.5t-62.5 20.5t-25.5 30.5q0 10 3 15.5t11 7.5t14 2t17.5 -1t15.5 -1q119 -8 172 -8q29 0 234 8q37 0 36 -27q0 -14 -14 -20t-35.5 -12.5t-43 -20.5t-36 -54t-14.5 -106v-463q0 -135 -16.5 -240.5t-61.5 -205.5t-119.5 -168t-197.5 -108t-287 -40 q-588 0 -588 576v668q0 59 -33.5 92t-72.5 39t-73 19t-34 38zM694 1571l250 258q84 86 107 96q14 6 30 7q37 0 59.5 -27t22.5 -45q0 -10 -2 -20.5t-5 -17.5t-10 -15.5t-11.5 -12.5t-14.5 -12t-14 -10t-17.5 -10.5t-15.5 -10.5l-285 -180h-94z" />
<glyph unicode="&#xdb;" horiz-adv-x="1705" d="M14 1409q0 33 43 33q4 0 113 -4t170 -4t169.5 4t119.5 4q23 0 22 -29q0 -18 -17.5 -24.5t-43 -14.5t-51 -27.5t-43 -78t-17.5 -152.5v-444q0 -127 19.5 -223.5t66.5 -179.5t138.5 -127t224.5 -44q119 0 205 38t134 96.5t76.5 151.5t37 180t8.5 204v406q0 66 -26 108.5 t-63.5 59t-74.5 26.5t-62.5 20.5t-25.5 30.5q0 10 3 15.5t11 7.5t14 2t17.5 -1t15.5 -1q119 -8 172 -8q29 0 234 8q37 0 36 -27q0 -14 -14 -20t-35.5 -12.5t-43 -20.5t-36 -54t-14.5 -106v-463q0 -135 -16.5 -240.5t-61.5 -205.5t-119.5 -168t-197.5 -108t-287 -40 q-588 0 -588 576v668q0 59 -33.5 92t-72.5 39t-73 19t-34 38zM528 1571l254 346h142l254 -346h-88l-236 211l-238 -211h-88z" />
<glyph unicode="&#xdc;" horiz-adv-x="1705" d="M14 1409q0 33 43 33q4 0 113 -4t170 -4t169.5 4t119.5 4q23 0 22 -29q0 -18 -17.5 -24.5t-43 -14.5t-51 -27.5t-43 -78t-17.5 -152.5v-444q0 -127 19.5 -223.5t66.5 -179.5t138.5 -127t224.5 -44q119 0 205 38t134 96.5t76.5 151.5t37 180t8.5 204v406q0 66 -26 108.5 t-63.5 59t-74.5 26.5t-62.5 20.5t-25.5 30.5q0 10 3 15.5t11 7.5t14 2t17.5 -1t15.5 -1q119 -8 172 -8q29 0 234 8q37 0 36 -27q0 -14 -14 -20t-35.5 -12.5t-43 -20.5t-36 -54t-14.5 -106v-463q0 -135 -16.5 -240.5t-61.5 -205.5t-119.5 -168t-197.5 -108t-287 -40 q-588 0 -588 576v668q0 59 -33.5 92t-72.5 39t-73 19t-34 38zM571 1710.5q0 24.5 39 72.5t57.5 48t57.5 -48t39 -72.5t-39 -72.5t-57.5 -48t-57.5 48t-39 72.5zM942 1710.5q0 24.5 39 72.5t57.5 48t57.5 -48t39 -72.5t-39 -72.5t-57.5 -48t-57.5 48t-39 72.5z" />
<glyph unicode="&#xdd;" horiz-adv-x="1366" d="M23 1417q0 16 15 20.5t56 4.5q10 0 69.5 -4t119.5 -4q174 0 299 8q35 2 34 -27q0 -20 -56 -41.5t-56 -58.5q0 -35 28 -94l185 -381q45 -94 63.5 -94.5t50.5 61.5l187 338q37 66 37 112q0 45 -31 72t-68.5 33t-68.5 17.5t-31 31.5q0 31 39 31q4 0 58.5 -4t117.5 -4 q90 0 154.5 4t81.5 4q37 0 36 -23q0 -18 -17 -30.5t-43 -24.5t-69 -60.5t-84 -123.5l-268 -508q-27 -53 -26 -129v-305q0 -88 38.5 -128t87 -40t87 -10.5t38.5 -43.5q0 -25 -65 -24l-25 2q-25 2 -96.5 4t-183.5 2q-109 0 -199 -4t-102 -4q-55 0 -56 22q0 29 35 40.5t77 16.5 t77 50t35 133v266q0 70 -33 129l-324 606q-27 49 -65.5 78t-67 35t-50 17.5t-21.5 31.5zM524 1571l250 258q84 86 107 96q14 6 30 7q37 0 59.5 -27t22.5 -45q0 -10 -2 -20.5t-5 -17.5t-10 -15.5t-11.5 -12.5t-14.5 -12t-14 -10t-17.5 -10.5t-15.5 -10.5l-285 -180h-94z" />
<glyph unicode="&#xde;" horiz-adv-x="1251" d="M14 1403q0 39 58 39q4 0 14 -1t31.5 -2t42.5 -1q98 -4 194 -4q25 -2 95.5 -1t82.5 3q6 0 54.5 4t52.5 4q39 0 39 -35q0 -4 -6 -23q-14 -6 -55.5 -13t-51.5 -9q-23 -8 -36 -13t-31.5 -32t-18.5 -68v-108h152q559 0 559 -400q0 -201 -129 -302t-336 -101q-27 0 -61.5 3 t-76.5 21.5t-42 49.5q0 27 33 26q6 0 52 -7t54 -7q35 0 73 12.5t82 41t71.5 92t27.5 153.5q0 139 -84 235.5t-223 96.5q-53 0 -87 -11.5t-46.5 -35t-15.5 -39.5t-3 -49v-650q0 -59 15.5 -101t38 -61.5t50 -31.5t50 -16.5t38 -13.5t15.5 -25q0 -14 -6 -21.5t-12 -8.5t-23 -1 h-8q-84 0 -176 4t-103 4q-37 0 -96 -2t-105 -4t-51 -2q-43 0 -43 31q0 18 26 32.5t56.5 28.5t56 67.5t25.5 141.5v901q0 74 -33.5 113t-72.5 45t-73 16t-34 35z" />
<glyph unicode="&#xdf;" d="M59 27q0 16 30 24t57.5 35t25.5 88v754q4 578 426 577q160 0 269.5 -94t109.5 -250q0 -129 -91 -220t-222 -110v-4q14 0 42.5 -5t78 -19.5t97.5 -46t93 -76.5t72.5 -120t27.5 -169q0 -188 -114.5 -296.5t-243.5 -108.5q-109 0 -135.5 16t-26.5 90q0 125 49 125 q27 0 67 -72.5t72 -72.5q8 0 16.5 2t27 16t30.5 39t22.5 78t10.5 127q0 133 -23.5 226t-101.5 161q-35 31 -77 43t-69.5 10t-47 7.5t-19.5 37.5q0 35 18 35q127 10 179.5 83t52.5 206q0 279 -191 278q-51 0 -86.5 -19.5t-54 -45t-28 -71.5t-11.5 -78t-2 -85v-970 q0 -41 18.5 -63.5t42 -27t42 -14.5t18.5 -29q0 -27 -33 -26q-18 0 -102 4t-117 4q-27 0 -85 -4t-83 -4q-12 0 -21.5 12t-9.5 23z" />
<glyph unicode="&#xe0;" horiz-adv-x="909" d="M43 170q0 41 9 76t28.5 62.5t40 49t55.5 40t60.5 30.5t70.5 25.5t72 20.5t76 18.5t71 17.5q0 156 -32.5 228.5t-143.5 72.5q-57 0 -75.5 -21.5t-18.5 -93.5q0 -33 -19.5 -55.5t-49 -29.5t-46 -9t-30.5 -2q-53 0 -54 43q0 63 38 111.5t97.5 74t120 38t119.5 12.5 q160 0 235.5 -73.5t75.5 -227.5v-353q0 -82 8.5 -104.5t47.5 -22.5q14 0 36.5 5.5t28.5 5.5q23 0 23 -19q0 -31 -72 -72t-127 -41q-109 0 -133 125q-154 -125 -319 -125q-84 0 -138.5 54.5t-54.5 138.5zM142 1274q0 18 22.5 45t59.5 27q29 0 49 -16.5t88 -86.5l250 -258h-95 l-284 180q-4 2 -14.5 8.5t-14.5 9.5t-13 9t-13.5 10t-11.5 10.5t-10 12.5l-7 14t-5 16.5t-1 18.5zM270 233q0 -135 109 -135q45 0 96 19.5t51 50.5v199v24v23.5t-1 15.5t-4 8t-9 2q-76 0 -159 -57t-83 -150z" />
<glyph unicode="&#xe1;" horiz-adv-x="909" d="M43 170q0 41 9 76t28.5 62.5t40 49t55.5 40t60.5 30.5t70.5 25.5t72 20.5t76 18.5t71 17.5q0 156 -32.5 228.5t-143.5 72.5q-57 0 -75.5 -21.5t-18.5 -93.5q0 -33 -19.5 -55.5t-49 -29.5t-46 -9t-30.5 -2q-53 0 -54 43q0 63 38 111.5t97.5 74t120 38t119.5 12.5 q160 0 235.5 -73.5t75.5 -227.5v-353q0 -82 8.5 -104.5t47.5 -22.5q14 0 36.5 5.5t28.5 5.5q23 0 23 -19q0 -31 -72 -72t-127 -41q-109 0 -133 125q-154 -125 -319 -125q-84 0 -138.5 54.5t-54.5 138.5zM270 233q0 -135 109 -135q45 0 96 19.5t51 50.5v199v24v23.5t-1 15.5 t-4 8t-9 2q-76 0 -159 -57t-83 -150zM297 985l250 258q84 86 107 96q14 6 30 7q37 0 59.5 -27t22.5 -45q0 -10 -2 -20.5t-5 -17.5t-10 -15.5t-11.5 -12.5t-14.5 -12t-14 -10t-17.5 -10.5t-15.5 -10.5l-285 -180h-94z" />
<glyph unicode="&#xe2;" horiz-adv-x="909" d="M43 170q0 41 9 76t28.5 62.5t40 49t55.5 40t60.5 30.5t70.5 25.5t72 20.5t76 18.5t71 17.5q0 156 -32.5 228.5t-143.5 72.5q-57 0 -75.5 -21.5t-18.5 -93.5q0 -33 -19.5 -55.5t-49 -29.5t-46 -9t-30.5 -2q-53 0 -54 43q0 63 38 111.5t97.5 74t120 38t119.5 12.5 q160 0 235.5 -73.5t75.5 -227.5v-353q0 -82 8.5 -104.5t47.5 -22.5q14 0 36.5 5.5t28.5 5.5q23 0 23 -19q0 -31 -72 -72t-127 -41q-109 0 -133 125q-154 -125 -319 -125q-84 0 -138.5 54.5t-54.5 138.5zM131 985l254 346h142l254 -346h-88l-236 211l-238 -211h-88zM270 233 q0 -135 109 -135q45 0 96 19.5t51 50.5v199v24v23.5t-1 15.5t-4 8t-9 2q-76 0 -159 -57t-83 -150z" />
<glyph unicode="&#xe3;" horiz-adv-x="909" d="M43 170q0 41 9 76t28.5 62.5t40 49t55.5 40t60.5 30.5t70.5 25.5t72 20.5t76 18.5t71 17.5q0 156 -32.5 228.5t-143.5 72.5q-57 0 -75.5 -21.5t-18.5 -93.5q0 -33 -19.5 -55.5t-49 -29.5t-46 -9t-30.5 -2q-53 0 -54 43q0 63 38 111.5t97.5 74t120 38t119.5 12.5 q160 0 235.5 -73.5t75.5 -227.5v-353q0 -82 8.5 -104.5t47.5 -22.5q14 0 36.5 5.5t28.5 5.5q23 0 23 -19q0 -31 -72 -72t-127 -41q-109 0 -133 125q-154 -125 -319 -125q-84 0 -138.5 54.5t-54.5 138.5zM105 1036q14 86 71.5 156t153.5 70q53 0 155.5 -49.5t147.5 -49.5 q18 0 33.5 7.5t25 17.5t18.5 24.5t13 24.5l8 20l5 11h69q-55 -229 -229 -230q-66 0 -160 49q-94 47 -133 48q-14 0 -27.5 -3.5t-22.5 -8.5t-17.5 -11t-14.5 -14t-10 -15.5t-8.5 -15.5t-5.5 -13t-3 -12l-2 -6h-67zM270 233q0 -135 109 -135q45 0 96 19.5t51 50.5v199v24v23.5 t-1 15.5t-4 8t-9 2q-76 0 -159 -57t-83 -150z" />
<glyph unicode="&#xe4;" horiz-adv-x="909" d="M43 170q0 41 9 76t28.5 62.5t40 49t55.5 40t60.5 30.5t70.5 25.5t72 20.5t76 18.5t71 17.5q0 156 -32.5 228.5t-143.5 72.5q-57 0 -75.5 -21.5t-18.5 -93.5q0 -33 -19.5 -55.5t-49 -29.5t-46 -9t-30.5 -2q-53 0 -54 43q0 63 38 111.5t97.5 74t120 38t119.5 12.5 q160 0 235.5 -73.5t75.5 -227.5v-353q0 -82 8.5 -104.5t47.5 -22.5q14 0 36.5 5.5t28.5 5.5q23 0 23 -19q0 -31 -72 -72t-127 -41q-109 0 -133 125q-154 -125 -319 -125q-84 0 -138.5 54.5t-54.5 138.5zM174 1124.5q0 24.5 39 72.5t57.5 48t57.5 -48t39 -72.5t-39 -72.5 t-57.5 -48t-57.5 48t-39 72.5zM270 233q0 -135 109 -135q45 0 96 19.5t51 50.5v199v24v23.5t-1 15.5t-4 8t-9 2q-76 0 -159 -57t-83 -150zM545 1124.5q0 24.5 39 72.5t57.5 48t57.5 -48t39 -72.5t-39 -72.5t-57.5 -48t-57.5 48t-39 72.5z" />
<glyph unicode="&#xe5;" horiz-adv-x="909" d="M43 170q0 41 9 76t28.5 62.5t40 49t55.5 40t60.5 30.5t70.5 25.5t72 20.5t76 18.5t71 17.5q0 156 -32.5 228.5t-143.5 72.5q-57 0 -75.5 -21.5t-18.5 -93.5q0 -33 -19.5 -55.5t-49 -29.5t-46 -9t-30.5 -2q-53 0 -54 43q0 63 38 111.5t97.5 74t120 38t119.5 12.5 q160 0 235.5 -73.5t75.5 -227.5v-353q0 -82 8.5 -104.5t47.5 -22.5q14 0 36.5 5.5t28.5 5.5q23 0 23 -19q0 -31 -72 -72t-127 -41q-109 0 -133 125q-154 -125 -319 -125q-84 0 -138.5 54.5t-54.5 138.5zM207 1184q0 86 61.5 146.5t147.5 60.5t147.5 -60.5t61.5 -146.5 t-61.5 -147.5t-147.5 -61.5t-147.5 61.5t-61.5 147.5zM270 233q0 -135 109 -135q45 0 96 19.5t51 50.5v199v24v23.5t-1 15.5t-4 8t-9 2q-76 0 -159 -57t-83 -150zM299 1184q0 -47 35 -82t82 -35t82 35t35 82t-35 80.5t-82 33.5t-82 -33.5t-35 -80.5z" />
<glyph unicode="&#xe6;" horiz-adv-x="1478" d="M63 170q0 37 9.5 69.5t20.5 57.5t37 47.5t44.5 38.5t56 31.5t60 25t69 21.5t69 17t74.5 16.5t70 15.5q0 156 -36.5 228.5t-165.5 72.5q-57 0 -76 -21.5t-19 -93.5q0 -33 -19 -55.5t-49 -29.5t-46.5 -9t-30.5 -2q-53 0 -53 43q0 63 38 111.5t97 74t119.5 38t120.5 12.5 q57 0 107 -11.5t80 -27t52.5 -30.5t33.5 -23.5t15 -4.5q98 96 275 97q127 0 219 -64.5t129 -139.5t37 -136q0 -20 -4 -31.5t-8.5 -12.5t-12.5 -1h-504q-4 0 -19 1t-20.5 0t-13.5 -6.5t-10 -16.5t-2 -30q0 -137 90 -236.5t233 -99.5q72 0 160 54.5t94 54.5q20 0 21 -25 q0 -49 -121 -131t-262 -82q-250 0 -371 168q-113 -94 -191.5 -131t-203.5 -37q-84 0 -138.5 54.5t-54.5 138.5zM291 233q0 -135 108 -135q31 0 67 9.5t71.5 41t35.5 80.5v138v12q0 29 -1 39t-10 18t-30 8q-61 0 -151 -60t-90 -151zM797 604q0 -20 14.5 -29.5t24.5 -9.5h297 q16 0 22 1t13.5 5t9.5 16.5t2 33.5q0 70 -49.5 134t-137.5 64q-102 0 -149 -64.5t-47 -150.5z" />
<glyph unicode="&#xe7;" horiz-adv-x="909" d="M51 387q0 207 140.5 349.5t347.5 142.5q45 0 99 -12.5t106.5 -50.5t52.5 -91q0 -27 -62.5 -76t-89.5 -49q-18 0 -27 31q-20 84 -57 126t-112 42q-193 0 -193 -275q0 -160 83 -289t218 -129q72 0 160 54.5t94 54.5q20 0 20 -25q0 -49 -120.5 -131t-261.5 -82 q-174 0 -286 117t-112 293zM244 -406l27 66q59 -23 120 -22q123 0 123 81q0 80 -96 80q-33 0 -57 -10l-29 12l88 199h76l-55 -131q35 10 77 10q53 0 104.5 -36t51.5 -115q0 -168 -274 -168q-68 0 -156 34z" />
<glyph unicode="&#xe8;" horiz-adv-x="909" d="M61 387q0 195 105.5 343.5t292.5 148.5q127 0 219 -64.5t129 -139.5t37 -136q0 -20 -4 -31.5t-8.5 -12.5t-12.5 -1h-504q-6 0 -15 1t-12 0t-8.5 -2t-6.5 -7.5t-2 -16.5t-1 -27q0 -135 86 -235.5t217 -100.5q72 0 160 54.5t94 54.5q20 0 21 -25q0 -49 -121 -131t-262 -82 q-166 0 -285 105.5t-119 304.5zM142 1274q0 18 22.5 45t59.5 27q29 0 49 -16.5t88 -86.5l250 -258h-95l-284 180q-4 2 -14.5 8.5t-14.5 9.5t-13 9t-13.5 10t-11.5 10.5t-10 12.5l-7 14t-5 16.5t-1 18.5zM268 604q1 -39 11 -39h296q16 0 22.5 1t13.5 5t9.5 16.5t2.5 33.5 q0 70 -49.5 134t-137.5 64q-84 0 -126 -65.5t-42 -149.5z" />
<glyph unicode="&#xe9;" horiz-adv-x="909" d="M61 387q0 195 105.5 343.5t292.5 148.5q127 0 219 -64.5t129 -139.5t37 -136q0 -20 -4 -31.5t-8.5 -12.5t-12.5 -1h-504q-6 0 -15 1t-12 0t-8.5 -2t-6.5 -7.5t-2 -16.5t-1 -27q0 -135 86 -235.5t217 -100.5q72 0 160 54.5t94 54.5q20 0 21 -25q0 -49 -121 -131t-262 -82 q-166 0 -285 105.5t-119 304.5zM268 604q1 -39 11 -39h296q16 0 22.5 1t13.5 5t9.5 16.5t2.5 33.5q0 70 -49.5 134t-137.5 64q-84 0 -126 -65.5t-42 -149.5zM297 985l250 258q84 86 107 96q14 6 30 7q37 0 59.5 -27t22.5 -45q0 -10 -2 -20.5t-5 -17.5t-10 -15.5t-11.5 -12.5 t-14.5 -12t-14 -10t-17.5 -10.5t-15.5 -10.5l-285 -180h-94z" />
<glyph unicode="&#xea;" horiz-adv-x="909" d="M61 387q0 195 105.5 343.5t292.5 148.5q127 0 219 -64.5t129 -139.5t37 -136q0 -20 -4 -31.5t-8.5 -12.5t-12.5 -1h-504q-6 0 -15 1t-12 0t-8.5 -2t-6.5 -7.5t-2 -16.5t-1 -27q0 -135 86 -235.5t217 -100.5q72 0 160 54.5t94 54.5q20 0 21 -25q0 -49 -121 -131t-262 -82 q-166 0 -285 105.5t-119 304.5zM131 985l254 346h142l254 -346h-88l-236 211l-238 -211h-88zM268 604q1 -39 11 -39h296q16 0 22.5 1t13.5 5t9.5 16.5t2.5 33.5q0 70 -49.5 134t-137.5 64q-84 0 -126 -65.5t-42 -149.5z" />
<glyph unicode="&#xeb;" horiz-adv-x="909" d="M61 387q0 195 105.5 343.5t292.5 148.5q127 0 219 -64.5t129 -139.5t37 -136q0 -20 -4 -31.5t-8.5 -12.5t-12.5 -1h-504q-6 0 -15 1t-12 0t-8.5 -2t-6.5 -7.5t-2 -16.5t-1 -27q0 -135 86 -235.5t217 -100.5q72 0 160 54.5t94 54.5q20 0 21 -25q0 -49 -121 -131t-262 -82 q-166 0 -285 105.5t-119 304.5zM174 1124.5q0 24.5 39 72.5t57.5 48t57.5 -48t39 -72.5t-39 -72.5t-57.5 -48t-57.5 48t-39 72.5zM268 604q1 -39 11 -39h296q16 0 22.5 1t13.5 5t9.5 16.5t2.5 33.5q0 70 -49.5 134t-137.5 64q-84 0 -126 -65.5t-42 -149.5zM545 1124.5 q0 24.5 39 72.5t57.5 48t57.5 -48t39 -72.5t-39 -72.5t-57.5 -48t-57.5 48t-39 72.5z" />
<glyph unicode="&#xec;" horiz-adv-x="569" d="M-28 1274q0 18 22.5 45t59.5 27q29 0 49 -16.5t88 -86.5l250 -258h-95l-284 180q-4 2 -14.5 8.5t-14.5 9.5t-13 9t-13.5 10t-11.5 10.5t-10 12.5l-7 14t-5 16.5t-1 18.5zM45 754q0 6 1 10t4 8t5 6t8.5 5t11.5 5.5t14 4.5t16.5 4t19.5 5t22 5q76 16 126.5 38.5t68.5 36 t27 13.5q16 0 20 -9t4 -32v-690q0 -45 23.5 -68.5t51.5 -28t51.5 -15.5t23.5 -34q0 -6 -3 -11t-9.5 -8t-12.5 -5t-16 -2h-15.5h-15.5h-12q-33 0 -97.5 4t-97.5 4q-25 0 -75 -4t-76 -4h-13.5h-13.5h-10t-9.5 2t-6.5 5t-4 8t-1 13q0 20 30 28.5t60.5 25t30.5 57.5v524 q0 43 -32.5 55.5t-65.5 16.5t-33 27z" />
<glyph unicode="&#xed;" horiz-adv-x="569" d="M45 754q0 6 1 10t4 8t5 6t8.5 5t11.5 5.5t14 4.5t16.5 4t19.5 5t22 5q76 16 126.5 38.5t68.5 36t27 13.5q16 0 20 -9t4 -32v-690q0 -45 23.5 -68.5t51.5 -28t51.5 -15.5t23.5 -34q0 -6 -3 -11t-9.5 -8t-12.5 -5t-16 -2h-15.5h-15.5h-12q-33 0 -97.5 4t-97.5 4 q-25 0 -75 -4t-76 -4h-13.5h-13.5h-10t-9.5 2t-6.5 5t-4 8t-1 13q0 20 30 28.5t60.5 25t30.5 57.5v524q0 43 -32.5 55.5t-65.5 16.5t-33 27zM127 985l250 258q84 86 107 96q14 6 30 7q37 0 59.5 -27t22.5 -45q0 -10 -2 -20.5t-5 -17.5t-10 -15.5t-11.5 -12.5t-14.5 -12 t-14 -10t-17.5 -10.5t-15.5 -10.5l-285 -180h-94z" />
<glyph unicode="&#xee;" horiz-adv-x="569" d="M-39 985l254 346h142l254 -346h-88l-236 211l-238 -211h-88zM45 754q0 6 1 10t4 8t5 6t8.5 5t11.5 5.5t14 4.5t16.5 4t19.5 5t22 5q76 16 126.5 38.5t68.5 36t27 13.5q16 0 20 -9t4 -32v-690q0 -45 23.5 -68.5t51.5 -28t51.5 -15.5t23.5 -34q0 -6 -3 -11t-9.5 -8 t-12.5 -5t-16 -2h-15.5h-15.5h-12q-33 0 -97.5 4t-97.5 4q-25 0 -75 -4t-76 -4h-13.5h-13.5h-10t-9.5 2t-6.5 5t-4 8t-1 13q0 20 30 28.5t60.5 25t30.5 57.5v524q0 43 -32.5 55.5t-65.5 16.5t-33 27z" />
<glyph unicode="&#xef;" horiz-adv-x="569" d="M4 1124.5q0 24.5 39 72.5t57.5 48t57.5 -48t39 -72.5t-39 -72.5t-57.5 -48t-57.5 48t-39 72.5zM45 754q0 6 1 10t4 8t5 6t8.5 5t11.5 5.5t14 4.5t16.5 4t19.5 5t22 5q76 16 126.5 38.5t68.5 36t27 13.5q16 0 20 -9t4 -32v-690q0 -45 23.5 -68.5t51.5 -28t51.5 -15.5 t23.5 -34q0 -6 -3 -11t-9.5 -8t-12.5 -5t-16 -2h-15.5h-15.5h-12q-33 0 -97.5 4t-97.5 4q-25 0 -75 -4t-76 -4h-13.5h-13.5h-10t-9.5 2t-6.5 5t-4 8t-1 13q0 20 30 28.5t60.5 25t30.5 57.5v524q0 43 -32.5 55.5t-65.5 16.5t-33 27zM375 1124.5q0 24.5 39 72.5t57.5 48 t57.5 -48t39 -72.5t-39 -72.5t-57.5 -48t-57.5 48t-39 72.5z" />
<glyph unicode="&#xf0;" horiz-adv-x="1024" d="M53 401q0 203 127 340.5t318 137.5q106 0 184 -50l4 5q-63 184 -211 348l-256 -148l-39 66l242 139q-47 49 -111.5 100.5t-99.5 80t-35 42.5q0 18 12.5 29.5t26.5 11.5q29 0 133.5 -66.5t188.5 -131.5l256 147l36 -66l-229 -133q166 -152 268.5 -357.5t102.5 -420.5 q0 -219 -129 -358.5t-348 -139.5q-188 0 -314.5 119t-126.5 305zM270 518q0 -59 13.5 -132t43 -151.5t90 -132t140.5 -53.5q207 0 207 258q0 70 -13.5 150t-43 164t-88 138t-136.5 54q-213 0 -213 -295z" />
<glyph unicode="&#xf1;" d="M31 754q0 6 1 10t4 8t5 6t8 5t11.5 5.5t14.5 4.5t16 4t19.5 5t22.5 5q76 16 126 38.5t68.5 36t26.5 13.5q16 0 20.5 -9t4.5 -32v-117h4q86 141 279 142q156 0 233.5 -108.5t77.5 -272.5v-332q0 -55 31.5 -82t63.5 -36t32 -25q0 -31 -47 -31q-35 0 -95.5 4t-78.5 4 q-29 0 -85.5 -4t-64.5 -4t-21.5 -1t-19.5 0t-13 3t-10 8t-3 16q0 12 47 49t47 80v349q0 250 -201 249q-96 0 -136 -50t-40 -146v-379q0 -51 42 -76.5t83 -39t41 -31.5q0 -31 -64 -31q-2 0 -69.5 4t-130.5 4q-37 0 -107 -4t-98 -4q-23 0 -23 22q0 18 17.5 28.5t37 17t37 39 t17.5 89.5v467q0 43 -33 55.5t-65.5 16.5t-32.5 27zM219 1036q14 86 71.5 156t153.5 70q53 0 155.5 -49.5t147.5 -49.5q18 0 33.5 7.5t25 17.5t18.5 24.5t13 24.5l8 20l5 11h69q-55 -229 -229 -230q-66 0 -160 49q-94 47 -133 48q-14 0 -27.5 -3.5t-22.5 -8.5t-17.5 -11 t-14.5 -14t-10 -15.5t-8.5 -15.5t-5.5 -13t-3 -12l-2 -6h-67z" />
<glyph unicode="&#xf2;" horiz-adv-x="1024" d="M53 401q0 203 131 340.5t334 137.5q195 0 324 -119t129 -309q0 -209 -133 -341.5t-344 -132.5q-188 0 -314.5 119t-126.5 305zM199 1274q0 18 22.5 45t59.5 27q29 0 49 -16.5t88 -86.5l250 -258h-95l-284 180q-4 2 -14.5 8.5t-14.5 9.5t-13 9t-13.5 10t-11.5 10.5 t-10 12.5l-7 14t-5 16.5t-1 18.5zM270 518q-2 -57 11.5 -131t44 -152.5t91 -132t140.5 -53.5q207 0 207 258q0 70 -13.5 150t-43 164t-88 138t-136.5 54q-63 0 -106 -23.5t-64.5 -69.5t-31 -92t-11.5 -110z" />
<glyph unicode="&#xf3;" horiz-adv-x="1024" d="M53 401q0 203 131 340.5t334 137.5q195 0 324 -119t129 -309q0 -209 -133 -341.5t-344 -132.5q-188 0 -314.5 119t-126.5 305zM270 518q-2 -57 11.5 -131t44 -152.5t91 -132t140.5 -53.5q207 0 207 258q0 70 -13.5 150t-43 164t-88 138t-136.5 54q-63 0 -106 -23.5 t-64.5 -69.5t-31 -92t-11.5 -110zM354 985l250 258q84 86 107 96q14 6 30 7q37 0 59.5 -27t22.5 -45q0 -10 -2 -20.5t-5 -17.5t-10 -15.5t-11.5 -12.5t-14.5 -12t-14 -10t-17.5 -10.5t-15.5 -10.5l-285 -180h-94z" />
<glyph unicode="&#xf4;" horiz-adv-x="1024" d="M53 401q0 203 131 340.5t334 137.5q195 0 324 -119t129 -309q0 -209 -133 -341.5t-344 -132.5q-188 0 -314.5 119t-126.5 305zM188 985l254 346h142l254 -346h-88l-236 211l-238 -211h-88zM270 518q-2 -57 11.5 -131t44 -152.5t91 -132t140.5 -53.5q207 0 207 258 q0 70 -13.5 150t-43 164t-88 138t-136.5 54q-63 0 -106 -23.5t-64.5 -69.5t-31 -92t-11.5 -110z" />
<glyph unicode="&#xf5;" horiz-adv-x="1024" d="M53 401q0 203 131 340.5t334 137.5q195 0 324 -119t129 -309q0 -209 -133 -341.5t-344 -132.5q-188 0 -314.5 119t-126.5 305zM162 1036q14 86 71.5 156t153.5 70q53 0 155.5 -49.5t147.5 -49.5q18 0 33.5 7.5t25 17.5t18.5 24.5t13 24.5l8 20l5 11h69 q-55 -229 -229 -230q-66 0 -160 49q-94 47 -133 48q-14 0 -27.5 -3.5t-22.5 -8.5t-17.5 -11t-14.5 -14t-10 -15.5t-8.5 -15.5t-5.5 -13t-3 -12l-2 -6h-67zM270 518q-2 -57 11.5 -131t44 -152.5t91 -132t140.5 -53.5q207 0 207 258q0 70 -13.5 150t-43 164t-88 138t-136.5 54 q-63 0 -106 -23.5t-64.5 -69.5t-31 -92t-11.5 -110z" />
<glyph unicode="&#xf6;" horiz-adv-x="1024" d="M53 401q0 203 131 340.5t334 137.5q195 0 324 -119t129 -309q0 -209 -133 -341.5t-344 -132.5q-188 0 -314.5 119t-126.5 305zM231 1124.5q0 24.5 39 72.5t57.5 48t57.5 -48t39 -72.5t-39 -72.5t-57.5 -48t-57.5 48t-39 72.5zM270 518q-2 -57 11.5 -131t44 -152.5 t91 -132t140.5 -53.5q207 0 207 258q0 70 -13.5 150t-43 164t-88 138t-136.5 54q-63 0 -106 -23.5t-64.5 -69.5t-31 -92t-11.5 -110zM602 1124.5q0 24.5 39 72.5t57.5 48t57.5 -48t39 -72.5t-39 -72.5t-57.5 -48t-57.5 48t-39 72.5z" />
<glyph unicode="&#xf7;" horiz-adv-x="1241" d="M104 434v176h1033v-176h-1033zM440 180q0 74 53.5 127t127.5 53q76 0 128 -53t52 -127q0 -76 -52 -128t-128 -52q-74 0 -127.5 52t-53.5 128zM440 864q0 74 53.5 127t127.5 53q76 0 128 -53t52 -127q0 -76 -52.5 -128t-127.5 -52q-74 0 -127.5 52t-53.5 128z" />
<glyph unicode="&#xf8;" horiz-adv-x="1024" d="M53 403q0 201 130 338.5t335 137.5q63 0 129 -17l88 264h90l-98 -290q113 -51 178.5 -151.5t65.5 -233.5q0 -209 -133 -341.5t-344 -132.5q-8 0 -29 2.5t-25 2.5l-96 -283h-92l102 299q-135 33 -218 150.5t-83 254.5zM270 518q-8 -237 125 -395l217 639q-47 51 -129 51 q-63 0 -106 -23.5t-64.5 -69.5t-31 -92t-11.5 -110zM469 68q37 -18 88 -19q207 0 207 258q0 230 -88 377z" />
<glyph unicode="&#xf9;" d="M29 774q0 25 36.5 33t108.5 17.5t123 29.5q53 25 55 25q25 0 25 -45v-519q0 -104 38 -156.5t140 -52.5q68 0 124 36t56 98v436q0 43 -32.5 55t-65.5 16.5t-33 26.5q0 25 37 33t108.5 17.5t122.5 29.5q53 25 56 25q24 0 24 -45v-674q0 -43 24.5 -62.5t54.5 -19.5t54.5 -5 t24.5 -24q0 -10 -2 -16t-8 -9.5t-10.5 -4.5t-15.5 -2t-15 -1l-309 -39q-14 29 -15 138q-2 -2 -37.5 -34t-61.5 -49.5t-80 -36t-116 -18.5q-166 0 -223 93.5t-57 257.5v348q0 43 -33 55t-65.5 16.5t-32.5 26.5zM256 1274q0 18 22.5 45t59.5 27q29 0 49 -16.5t88 -86.5 l250 -258h-95l-284 180q-4 2 -14.5 8.5t-14.5 9.5t-13 9t-13.5 10t-11.5 10.5t-10 12.5l-7 14t-5 16.5t-1 18.5z" />
<glyph unicode="&#xfa;" d="M29 774q0 25 36.5 33t108.5 17.5t123 29.5q53 25 55 25q25 0 25 -45v-519q0 -104 38 -156.5t140 -52.5q68 0 124 36t56 98v436q0 43 -32.5 55t-65.5 16.5t-33 26.5q0 25 37 33t108.5 17.5t122.5 29.5q53 25 56 25q24 0 24 -45v-674q0 -43 24.5 -62.5t54.5 -19.5t54.5 -5 t24.5 -24q0 -10 -2 -16t-8 -9.5t-10.5 -4.5t-15.5 -2t-15 -1l-309 -39q-14 29 -15 138q-2 -2 -37.5 -34t-61.5 -49.5t-80 -36t-116 -18.5q-166 0 -223 93.5t-57 257.5v348q0 43 -33 55t-65.5 16.5t-32.5 26.5zM411 985l250 258q84 86 107 96q14 6 30 7q37 0 59.5 -27 t22.5 -45q0 -10 -2 -20.5t-5 -17.5t-10 -15.5t-11.5 -12.5t-14.5 -12t-14 -10t-17.5 -10.5t-15.5 -10.5l-285 -180h-94z" />
<glyph unicode="&#xfb;" d="M29 774q0 25 36.5 33t108.5 17.5t123 29.5q53 25 55 25q25 0 25 -45v-519q0 -104 38 -156.5t140 -52.5q68 0 124 36t56 98v436q0 43 -32.5 55t-65.5 16.5t-33 26.5q0 25 37 33t108.5 17.5t122.5 29.5q53 25 56 25q24 0 24 -45v-674q0 -43 24.5 -62.5t54.5 -19.5t54.5 -5 t24.5 -24q0 -10 -2 -16t-8 -9.5t-10.5 -4.5t-15.5 -2t-15 -1l-309 -39q-14 29 -15 138q-2 -2 -37.5 -34t-61.5 -49.5t-80 -36t-116 -18.5q-166 0 -223 93.5t-57 257.5v348q0 43 -33 55t-65.5 16.5t-32.5 26.5zM245 985l254 346h142l254 -346h-88l-236 211l-238 -211h-88z " />
<glyph unicode="&#xfc;" d="M29 774q0 25 36.5 33t108.5 17.5t123 29.5q53 25 55 25q25 0 25 -45v-519q0 -104 38 -156.5t140 -52.5q68 0 124 36t56 98v436q0 43 -32.5 55t-65.5 16.5t-33 26.5q0 25 37 33t108.5 17.5t122.5 29.5q53 25 56 25q24 0 24 -45v-674q0 -43 24.5 -62.5t54.5 -19.5t54.5 -5 t24.5 -24q0 -10 -2 -16t-8 -9.5t-10.5 -4.5t-15.5 -2t-15 -1l-309 -39q-14 29 -15 138q-2 -2 -37.5 -34t-61.5 -49.5t-80 -36t-116 -18.5q-166 0 -223 93.5t-57 257.5v348q0 43 -33 55t-65.5 16.5t-32.5 26.5zM288 1124.5q0 24.5 39 72.5t57.5 48t57.5 -48t39 -72.5 t-39 -72.5t-57.5 -48t-57.5 48t-39 72.5zM659 1124.5q0 24.5 39 72.5t57.5 48t57.5 -48t39 -72.5t-39 -72.5t-57.5 -48t-57.5 48t-39 72.5z" />
<glyph unicode="&#xfd;" horiz-adv-x="1024" d="M31 825q0 31 71 31q8 0 56.5 -4t103.5 -4q59 0 112.5 4t65.5 4h6q20 0 28.5 -1t16 -7t7.5 -19q0 -27 -56.5 -49t-56.5 -53q0 -23 37 -100l168 -338q25 -51 37 -51q10 0 28 51l101 258q33 84 32 131q0 53 -33.5 78.5t-68.5 36t-35 30.5q0 12 4 19.5t17.5 10.5t20.5 3h32 q6 0 43 -4t72 -4q33 0 68.5 4t43.5 4q51 0 52 -22q0 -18 -45.5 -48t-59.5 -65l-436 -1098q-14 -39 -33 -39h-96q-18 0 -19 17q0 18 19 47l127 202q47 76 47 107q0 23 -51 123l-318 627q-23 45 -65.5 72.5t-42.5 45.5zM395 985l250 258q84 86 107 96q14 6 30 7q37 0 59.5 -27 t22.5 -45q0 -10 -2 -20.5t-5 -17.5t-10 -15.5t-11.5 -12.5t-14.5 -12t-14 -10t-17.5 -10.5t-15.5 -10.5l-285 -180h-94z" />
<glyph unicode="&#xfe;" horiz-adv-x="1024" d="M16 1372q0 16 11.5 24.5t37 15.5t56.5 15.5t82 31t104 52.5q25 14 35 15q18 0 18 -56v-733q123 141 275 142q160 0 244 -111t84 -266q0 -135 -41 -249t-145.5 -195t-260.5 -81q-78 0 -156 39v-252q0 -49 27 -76.5t57.5 -31.5t57 -14.5t26.5 -30.5q0 -27 -43 -27 q-37 0 -90 4t-94 4q-76 0 -133 -4t-64 -4h-19t-13.5 3t-11.5 9.5t-3 18.5q0 14 13.5 23.5t30 12.5t29.5 18.5t13 41.5v1528q0 51 -19.5 74.5t-44 22.5t-44 6.5t-19.5 29.5zM360 176q0 -6 23 -34.5t75 -59.5t113 -31q113 0 162 86t49 209q0 133 -70.5 261t-199.5 128 q-86 1 -152 -73v-486z" />
<glyph unicode="&#xff;" horiz-adv-x="1024" d="M31 825q0 31 71 31q8 0 56.5 -4t103.5 -4q59 0 112.5 4t65.5 4h6q20 0 28.5 -1t16 -7t7.5 -19q0 -27 -56.5 -49t-56.5 -53q0 -23 37 -100l168 -338q25 -51 37 -51q10 0 28 51l101 258q33 84 32 131q0 53 -33.5 78.5t-68.5 36t-35 30.5q0 12 4 19.5t17.5 10.5t20.5 3h32 q6 0 43 -4t72 -4q33 0 68.5 4t43.5 4q51 0 52 -22q0 -18 -45.5 -48t-59.5 -65l-436 -1098q-14 -39 -33 -39h-96q-18 0 -19 17q0 18 19 47l127 202q47 76 47 107q0 23 -51 123l-318 627q-23 45 -65.5 72.5t-42.5 45.5zM272 1124.5q0 24.5 39 72.5t57.5 48t57.5 -48t39 -72.5 t-39 -72.5t-57.5 -48t-57.5 48t-39 72.5zM643 1124.5q0 24.5 39 72.5t57.5 48t57.5 -48t39 -72.5t-39 -72.5t-57.5 -48t-57.5 48t-39 72.5z" />
<glyph unicode="&#x152;" horiz-adv-x="2048" d="M47 686q0 360 190.5 558t532.5 198q43 0 249 -4t429 -4q72 0 217 4t225 4q18 0 29.5 -12.5t11.5 -26.5l8 -203q8 -94 -34 -94q-23 0 -31 17.5t-8 44t-11.5 58t-34 58.5t-78.5 44.5t-145 17.5h-106.5t-69.5 -6.5t-46 -12.5t-20.5 -25.5t-12.5 -39t-1 -60.5v-287 q0 -70 12.5 -86t76.5 -16h129q66 0 106.5 47t59 94t32.5 47h9t9.5 -2t10.5 -7l6 -15t4 -27l14 -364q6 -20 1 -60.5t-35 -40.5q-20 0 -31.5 34t-20 75t-45.5 74.5t-100 33.5h-152q-33 0 -50 -3t-25.5 -20t-9.5 -32.5t-1 -60.5v-27v-262v-18q0 -55 2.5 -80t14.5 -53.5t42 -39 t81 -10.5q141 0 241.5 28t144.5 66.5t69.5 78.5t42 68t34.5 28q23 0 23 -46q0 -123 -80 -225t-184 -102q-182 0 -347 4t-190 4q-115 0 -300 -4t-267 -4q-117 0 -224.5 42t-197.5 124t-144.5 219t-54.5 309zM299 719q0 -92 18.5 -190.5t64.5 -211t145.5 -184.5t238.5 -72 q80 0 132 12.5t99 50.5t70 114.5t23 197.5v545q0 184 -74 283.5t-254 99.5q-106 0 -189.5 -38t-133.5 -99.5t-82.5 -147.5t-45 -174t-12.5 -186z" />
<glyph unicode="&#x153;" horiz-adv-x="1593" d="M53 401q0 203 131 340.5t334 137.5q209 0 352 -146q23 61 107 103.5t170 42.5q127 0 219 -64.5t129 -139.5t37 -136q0 -20 -4 -31.5t-8.5 -12.5t-12.5 -1h-503q-6 0 -15.5 1t-12.5 0t-8 -2t-6 -7.5t-2.5 -16.5t-1.5 -27q0 -135 86 -235.5t218 -100.5q72 0 159.5 54.5 t94.5 54.5q20 0 20 -25q0 -49 -121 -131t-262 -82q-98 0 -182 37t-131 97q-12 -16 -43 -41t-118 -59t-185 -34q-188 0 -314.5 119t-126.5 305zM270 518q-2 -57 11.5 -131t44 -152.5t91 -132t140.5 -53.5q207 0 207 258q0 70 -13.5 150t-43 164t-88 138t-136.5 54 q-63 0 -106 -23.5t-64.5 -69.5t-31 -92t-11.5 -110zM956 604q1 -39 11 -39h297q16 0 22 1t13.5 5t9.5 16.5t2 33.5q0 70 -49.5 134t-137.5 64q-84 0 -126 -65.5t-42 -149.5z" />
<glyph unicode="&#x178;" horiz-adv-x="1366" d="M23 1417q0 16 15 20.5t56 4.5q10 0 69.5 -4t119.5 -4q174 0 299 8q35 2 34 -27q0 -20 -56 -41.5t-56 -58.5q0 -35 28 -94l185 -381q45 -94 63.5 -94.5t50.5 61.5l187 338q37 66 37 112q0 45 -31 72t-68.5 33t-68.5 17.5t-31 31.5q0 31 39 31q4 0 58.5 -4t117.5 -4 q90 0 154.5 4t81.5 4q37 0 36 -23q0 -18 -17 -30.5t-43 -24.5t-69 -60.5t-84 -123.5l-268 -508q-27 -53 -26 -129v-305q0 -88 38.5 -128t87 -40t87 -10.5t38.5 -43.5q0 -25 -65 -24l-25 2q-25 2 -96.5 4t-183.5 2q-109 0 -199 -4t-102 -4q-55 0 -56 22q0 29 35 40.5t77 16.5 t77 50t35 133v266q0 70 -33 129l-324 606q-27 49 -65.5 78t-67 35t-50 17.5t-21.5 31.5zM442 1710.5q0 24.5 39 72.5t57.5 48t57.5 -48t39 -72.5t-39 -72.5t-57.5 -48t-57.5 48t-39 72.5zM813 1710.5q0 24.5 39 72.5t57.5 48t57.5 -48t39 -72.5t-39 -72.5t-57.5 -48 t-57.5 48t-39 72.5z" />
<glyph unicode="&#x2c6;" horiz-adv-x="681" d="M16 985l254 346h142l254 -346h-88l-236 211l-238 -211h-88z" />
<glyph unicode="&#x2dc;" horiz-adv-x="681" d="M-10 1036q14 86 71.5 156t153.5 70q53 0 155.5 -49.5t147.5 -49.5q18 0 33.5 7.5t25 17.5t18.5 24.5t13 24.5l8 20l5 11h69q-55 -229 -229 -230q-66 0 -160 49q-94 47 -133 48q-14 0 -27.5 -3.5t-22.5 -8.5t-17.5 -11t-14.5 -14t-10 -15.5t-8.5 -15.5t-5.5 -13t-3 -12 l-2 -6h-67z" />
<glyph unicode="&#x2000;" horiz-adv-x="968" />
<glyph unicode="&#x2001;" horiz-adv-x="1936" />
<glyph unicode="&#x2002;" horiz-adv-x="968" />
<glyph unicode="&#x2003;" horiz-adv-x="1936" />
<glyph unicode="&#x2004;" horiz-adv-x="645" />
<glyph unicode="&#x2005;" horiz-adv-x="484" />
<glyph unicode="&#x2006;" horiz-adv-x="322" />
<glyph unicode="&#x2007;" horiz-adv-x="322" />
<glyph unicode="&#x2008;" horiz-adv-x="242" />
<glyph unicode="&#x2009;" horiz-adv-x="387" />
<glyph unicode="&#x200a;" horiz-adv-x="107" />
<glyph unicode="&#x2010;" horiz-adv-x="681" d="M86 285v135q0 24 74 51l360 127q41 14 53 14q20 0 21 -26v-135q0 -25 -74 -52l-360 -127q-41 -14 -54 -14q-20 0 -20 27z" />
<glyph unicode="&#x2011;" horiz-adv-x="681" d="M86 285v135q0 24 74 51l360 127q41 14 53 14q20 0 21 -26v-135q0 -25 -74 -52l-360 -127q-41 -14 -54 -14q-20 0 -20 27z" />
<glyph unicode="&#x2012;" horiz-adv-x="681" d="M86 285v135q0 24 74 51l360 127q41 14 53 14q20 0 21 -26v-135q0 -25 -74 -52l-360 -127q-41 -14 -54 -14q-20 0 -20 27z" />
<glyph unicode="&#x2013;" horiz-adv-x="1024" d="M0 375v147h1024v-147h-1024z" />
<glyph unicode="&#x2014;" horiz-adv-x="2048" d="M0 375v147h2048v-147h-2048z" />
<glyph unicode="&#x2018;" horiz-adv-x="569" d="M88 1053q0 141 122 274t210 133q25 0 24 -24q0 -14 -37.5 -45t-76.5 -80t-39 -113q0 -57 37 -99t72.5 -67.5t35.5 -42.5q0 -18 -82 -90l-24.5 -24.5t-30.5 -29.5t-26.5 -18.5t-28.5 -9.5q-57 0 -106.5 73t-49.5 163z" />
<glyph unicode="&#x2019;" horiz-adv-x="569" d="M104 842q0 14 38 45t77 80t39 112q0 57 -37 99.5t-72.5 68t-35.5 41.5q0 18 82 90l24.5 24.5t30.5 30t26.5 18.5t28.5 9q57 0 106.5 -72.5t49.5 -162.5q0 -141 -122 -274.5t-210 -133.5q-25 0 -25 25z" />
<glyph unicode="&#x201a;" horiz-adv-x="569" d="M84 -250q0 14 38 45t77 80t39 113q0 57 -37 99t-73 67.5t-36 42.5q0 18 82 90l24.5 24.5t31 29.5t27 18.5t28.5 9.5q57 0 106 -73t49 -163q0 -141 -121.5 -274t-209.5 -133q-25 0 -25 24z" />
<glyph unicode="&#x201c;" horiz-adv-x="1024" d="M94 1053q0 141 122 274t210 133q25 0 25 -24q0 -12 -24 -35t-53.5 -46.5t-53 -65.5t-23.5 -91q0 -45 22.5 -82t50 -55.5t50 -37.5t22.5 -34q0 -18 -82 -90l-24.5 -24.5t-30.5 -29.5t-26.5 -18.5t-28.5 -9.5q-57 0 -106.5 73t-49.5 163zM571 1053q0 141 122 274t210 133 q25 0 25 -24q0 -14 -38 -45t-77 -80t-39 -113q0 -57 37 -99t73 -67.5t36 -42.5q0 -18 -82 -90l-24.5 -24.5t-31 -29.5t-27 -18.5t-28.5 -9.5q-57 0 -106.5 73t-49.5 163z" />
<glyph unicode="&#x201d;" horiz-adv-x="1024" d="M86 842q0 12 23.5 34.5t53.5 46t53.5 65.5t23.5 91q0 45 -22.5 82t-50.5 55.5t-50.5 38t-22.5 33.5q0 18 82 90l24.5 24.5t31 30t27 18.5t28.5 9q57 0 106 -72.5t49 -162.5q0 -141 -121.5 -274.5t-209.5 -133.5q-25 0 -25 25zM563 842q0 14 38 45t77 80t39 112 q0 57 -37 99.5t-73 68t-36 41.5q0 18 82 90l24.5 24.5t31 30t27 18.5t28.5 9q57 0 106.5 -72.5t49.5 -162.5q0 -141 -122 -274.5t-210 -133.5q-25 0 -25 25z" />
<glyph unicode="&#x201e;" horiz-adv-x="1024" d="M84 -250q0 14 38 45t77 80t39 113q0 57 -37 99t-73 67.5t-36 42.5q0 18 82 90l24.5 24.5t31 29.5t27 18.5t28.5 9.5q57 0 106 -73t49 -163q0 -141 -121.5 -274t-209.5 -133q-25 0 -25 24zM567 -250q0 14 38 45t77 80t39 113q0 57 -37 99t-73 67.5t-36 42.5q0 18 82 90 l24.5 24.5t31 29.5t27 18.5t28.5 9.5q57 0 106.5 -73t49.5 -163q0 -141 -122 -274t-210 -133q-25 0 -25 24z" />
<glyph unicode="&#x2022;" horiz-adv-x="1241" d="M260 720.5q0 149.5 105.5 255t255 105.5t255 -105.5t105.5 -255t-105.5 -255t-255 -105.5t-255 105.5t-105.5 255z" />
<glyph unicode="&#x2026;" horiz-adv-x="2048" d="M158 184q0 39 72.5 112t111.5 73t111.5 -73t72.5 -112t-72.5 -111.5t-111.5 -72.5t-111.5 72.5t-72.5 111.5zM840 184q0 39 72.5 112t111.5 73t111.5 -73t72.5 -112t-72.5 -111.5t-111.5 -72.5t-111.5 72.5t-72.5 111.5zM1522 184q0 39 72.5 112t111.5 73t111.5 -73 t72.5 -112t-72.5 -111.5t-111.5 -72.5t-111.5 72.5t-72.5 111.5z" />
<glyph unicode="&#x202f;" horiz-adv-x="387" />
<glyph unicode="&#x2039;" horiz-adv-x="681" d="M143 446l357 304q8 8 22.5 8t14.5 -15q0 -25 -82 -139.5t-121 -157.5q39 -43 121 -157.5t82 -138.5q0 -14 -14.5 -14.5t-22.5 7.5z" />
<glyph unicode="&#x203a;" horiz-adv-x="681" d="M137 150q0 25 82 139t121 157q-39 43 -121 158t-82 139q0 14 14.5 14.5t22.5 -7.5l356 -304l-356 -303q-8 -8 -22.5 -8t-14.5 15z" />
<glyph unicode="&#x205f;" horiz-adv-x="484" />
<glyph unicode="&#x2122;" horiz-adv-x="2004" d="M57 1225v209h752v-209h-61q-2 82 -34 112.5t-116 30.5h-90v-635q0 -74 123 -74v-53h-404v53q131 0 131 93v616h-90q-84 0 -115.5 -30.5t-33.5 -112.5h-62zM905 606v53q45 2 62.5 5.5t29 17.5t11.5 47v582v18v16.5t-1 12.5t-3.5 10t-6.5 7t-10 6t-14 2t-21 1h-30v50h270 l242 -572l241 572h273v-50h-39q-25 0 -37 -3t-17.5 -15t-6.5 -20.5t-1 -34.5v-551q0 -63 15.5 -79.5t85.5 -21.5v-53h-355v53q70 2 87.5 17.5t17.5 81.5v569h-4l-293 -721h-21l-305 721h-4v-602q0 -31 14.5 -45t31 -16t57.5 -5v-53h-269z" />
<glyph unicode="&#x25fc;" horiz-adv-x="860" d="M0 0v860h860v-860h-860z" />
<glyph unicode="&#xfb01;" d="M33 741v111h76q63 0 63 31q0 109 57.5 243t135.5 209q174 168 383 168q59 0 108 -29.5t68.5 -58.5t19.5 -43q0 -25 -52 -76t-79 -51q-23 0 -46.5 38t-57 76t-80.5 38q-90 0 -161 -116t-71 -251q0 -152 9 -166q8 -12 34 -12h340q59 0 94 10t49.5 21.5t20.5 11.5 q16 0 20.5 -9t4.5 -32v-690q0 -45 23.5 -68.5t51 -28t51 -15.5t23.5 -34q0 -6 -3 -11t-9 -8t-12.5 -5t-16.5 -2h-15h-15.5h-12.5q-33 0 -97.5 4t-96.5 4q-25 0 -75 -4t-77 -4h-11h-9t-7.5 1t-6.5 4t-2 9t-1 14q0 16 15.5 25.5t35 13.5t35 21.5t15.5 50.5v524 q-2 31 -5.5 45.5t-22.5 27.5t-58 13h-238q-31 0 -31 -49v-497q0 -63 27 -95t59.5 -34.5t59 -12.5t26.5 -35q0 -27 -37 -26q-10 0 -87.5 4t-135.5 4q-45 0 -115.5 -4t-87.5 -4q-29 0 -28 28q0 20 16.5 29.5t34.5 11.5t34.5 19.5t16.5 54.5v531q0 76 -35 75h-112z" />
<glyph unicode="&#xfb02;" d="M45 741v111h76q63 0 63 31q0 109 57.5 243t135.5 209q174 168 383 168q39 0 76.5 -14t40.5 -14q23 0 54.5 25.5t49.5 25.5q12 0 13 -15.5t-4 -64.5t-5 -92v-1174q0 -63 38 -94t76 -41t38 -26.5t-8.5 -21.5t-34.5 -5q-18 0 -107.5 4t-122.5 4q-25 0 -93.5 -4t-88.5 -4 q-35 0 -35 20.5t18.5 27.5t42 10t42 37t18.5 99v1071q0 139 -127 140q-90 0 -160.5 -116t-70.5 -251v-88q-2 -63 0 -76.5t14 -13.5h143q27 0 39 22.5t27 22.5q12 0 12 -14q0 -4 -27 -76q-4 -8 -10 -27.5t-12 -29t-18 -9.5h-138q-31 0 -30 -49v-497q0 -63 26.5 -95t59 -34.5 t59.5 -12.5t27 -35q0 -27 -37 -26q-10 0 -88 4t-135 4q-45 0 -116 -4t-87 -4q-29 0 -29 28q0 20 16.5 29.5t35 11.5t35 19.5t16.5 54.5v531q0 76 -35 75h-113z" />
</font>
</defs>
</svg>
